<?xml version="1.0" encoding="UTF-8"?>
<svg xmlns="http://www.w3.org/2000/svg" width="300" height="206" viewBox="0 0 300 206" fill="none">
  <path fill-rule="evenodd" clip-rule="evenodd" d="M12.1704 87.2353L15.9013 86.2996V92.9968C15.7591 93.5346 15.4598 94.0621 15.1498 94.5219C14.7861 95.0495 14.3076 95.5808 13.752 96.1129C13.1956 96.6036 12.5576 97.0248 11.838 97.3569C11.1534 97.7109 10.4446 97.8825 9.72817 97.8825C8.54216 97.8825 7.56731 97.4291 6.84192 96.5308C6.15417 95.6112 5.80775 94.5019 5.80775 93.198C5.80775 92.4576 6.02466 91.7586 6.44191 91.0995C6.89934 90.452 7.43525 89.8826 8.08089 89.3854C8.72143 88.8636 9.3894 88.4077 10.0944 88.0279C10.8408 87.6506 11.5337 87.3862 12.1704 87.2353ZM16.1801 96.8255V100.457H24.5212V97.2073H21.5399V81.2526C21.5399 80.0183 21.2917 78.8452 20.7858 77.7483C20.3181 76.6171 19.647 75.6221 18.778 74.7856C17.9512 73.9531 16.9406 73.2843 15.7457 72.811C14.5788 72.3344 13.3041 72.1055 11.8827 72.1055C10.5352 72.1055 9.28477 72.2286 8.16064 72.4898C7.06905 72.7091 6.07825 72.9696 5.19018 73.2643C4.35888 73.5591 3.65965 73.8738 3.11991 74.204L1.99514 74.8211V79.8668H6.79854V76.7822C7.1539 76.4282 7.87036 76.1032 8.28377 75.9245C9.03277 75.5402 9.84429 75.3473 10.7202 75.3473C12.416 75.3473 13.7245 75.9722 14.6062 77.2543C15.4752 78.5163 15.9013 79.9977 15.9013 81.7021V83.5098L10.9767 84.6544C9.88129 84.915 8.67039 85.3122 7.35423 85.8688C6.08591 86.3853 4.89224 87.0341 3.80319 87.8086C2.71415 88.5451 1.80183 89.4067 1.07899 90.394C0.363809 91.3336 0.0078125 92.3519 0.0078125 93.4211C0.0078125 95.6466 0.746601 97.4878 2.2178 98.9343C3.73174 100.391 5.83773 101.124 8.56576 101.124C10.3464 101.124 12.0147 100.351 13.433 99.3219C14.0946 98.8382 14.64 98.3584 15.0739 97.8889C15.5147 97.3646 15.7725 96.997 15.8752 96.7578L16.1801 96.8255Z" fill="#A0A0A0"></path>
  <path fill-rule="evenodd" clip-rule="evenodd" d="M28.6094 97.2073V100.457H40.4804V97.2073H37.4965V61.2178H28.6094V64.4629H31.5837V97.2073H28.6094Z" fill="#A0A0A0"></path>
  <path fill-rule="evenodd" clip-rule="evenodd" d="M74.9718 97.2073V100.457H86.5181V97.2073H83.5413V81.537C83.5413 80.5536 83.3767 79.5005 83.0449 78.3996C82.7534 77.2724 82.2513 76.247 81.5259 75.3351C80.8471 74.3852 79.9175 73.6171 78.7608 73.0341C77.652 72.4202 76.2676 72.1055 74.5859 72.1055C73.6972 72.1055 72.862 72.2893 72.1098 72.6433C71.3557 72.9761 70.6878 73.4017 70.1085 73.9015C69.5279 74.3813 69.043 74.8818 68.6456 75.3893C68.2755 75.8691 68.0484 76.227 67.9425 76.4624L67.6427 76.3979V61.2178H58.7383V64.4629H61.7221V97.2073H58.7383V100.457H70.2916V97.2073H67.6427V80.5194C67.6797 80.2247 67.8832 79.7952 68.2117 79.2715C68.5543 78.7079 68.9607 78.1604 69.4507 77.6251C69.9751 77.097 70.5557 76.6513 71.186 76.2644C71.8444 75.8388 72.5296 75.6221 73.2595 75.6221C74.0295 75.6221 74.6803 75.8014 75.2226 76.1516C75.7929 76.5004 76.2542 76.9396 76.6045 77.4839C76.9394 77.9889 77.1914 78.5583 77.3394 79.2058C77.5225 79.8165 77.6169 80.402 77.6169 80.9818V97.2073H74.9718Z" fill="#A0A0A0"></path>
  <path fill-rule="evenodd" clip-rule="evenodd" d="M90.5859 97.2071V100.457H102.471V97.2071H99.489V72.7728H90.5859V76.0166H93.5717V97.2071H90.5859ZM99.1541 67.6343C99.9299 66.921 100.314 66.0498 100.314 65.0205C100.314 63.99 99.9299 63.1187 99.1541 62.4055C98.4077 61.6813 97.5266 61.335 96.495 61.335C94.4598 61.335 92.743 62.9156 92.743 65.0205C92.743 67.1203 94.4598 68.7035 96.495 68.7035C97.5266 68.7035 98.4077 68.3507 99.1541 67.6343Z" fill="#A0A0A0"></path>
  <path fill-rule="evenodd" clip-rule="evenodd" d="M106.547 97.2073V100.457H118.423V97.2073H115.439V61.2178H106.547V64.4629H109.529V97.2073H106.547Z" fill="#A0A0A0"></path>
  <path fill-rule="evenodd" clip-rule="evenodd" d="M134.389 87.2353L138.121 86.2996V92.9968C137.978 93.5346 137.678 94.0621 137.377 94.5219C137.001 95.0495 136.525 95.5808 135.97 96.1129C135.407 96.6036 134.765 97.0248 134.053 97.3569C133.371 97.7109 132.666 97.8825 131.939 97.8825C130.753 97.8825 129.782 97.4291 129.056 96.5308C128.371 95.6112 128.025 94.5019 128.025 93.198C128.025 92.4576 128.234 91.7586 128.656 91.0995C129.113 90.452 129.653 89.8826 130.294 89.3854C130.929 88.8636 131.6 88.4077 132.308 88.0279C133.049 87.6506 133.745 87.3862 134.389 87.2353ZM138.395 96.8255V100.457H146.736V97.2073H143.757V81.2526C143.757 80.0183 143.506 78.8452 142.997 77.7483C142.53 76.6171 141.858 75.6221 140.995 74.7856C140.152 73.9531 139.144 73.2843 137.95 72.811C136.804 72.3344 135.508 72.1055 134.096 72.1055C132.743 72.1055 131.505 72.2286 130.372 72.4898C129.274 72.7091 128.29 72.9696 127.415 73.2643C126.566 73.5591 125.882 73.8738 125.349 74.204L124.209 74.8211V79.8668H129.016V76.7822C129.362 76.4282 130.088 76.1032 130.495 75.9245C131.255 75.5402 132.069 75.3473 132.938 75.3473C134.636 75.3473 135.935 75.9722 136.822 77.2543C137.682 78.5163 138.121 79.9977 138.121 81.7021V83.5098L133.188 84.6544C132.089 84.915 130.885 85.3122 129.569 85.8688C128.299 86.3853 127.106 87.0341 126.018 87.8086C124.919 88.5451 124.017 89.4067 123.29 90.394C122.577 91.3336 122.219 92.3519 122.219 93.4211C122.219 95.6466 122.964 97.4878 124.431 98.9343C125.939 100.391 128.052 101.124 130.781 101.124C132.564 101.124 134.238 100.351 135.661 99.3219C136.316 98.8382 136.844 98.3584 137.285 97.8889C137.726 97.3646 137.995 96.997 138.092 96.7578L138.395 96.8255Z" fill="#A0A0A0"></path>
  <path fill-rule="evenodd" clip-rule="evenodd" d="M150.812 97.2073V100.457H162.695V97.2073H159.707V61.2178H150.812V64.4629H153.792V97.2073H150.812Z" fill="#A0A0A0"></path>
  <path fill-rule="evenodd" clip-rule="evenodd" d="M200.276 82.3432C200.532 83.5433 200.668 84.7228 200.668 85.8875C200.668 87.1637 200.52 88.5077 200.214 89.9342C199.742 92.4512 198.738 95.0056 196.802 96.7223C195.921 97.4943 194.862 97.8825 193.658 97.8825C192.895 97.8825 192.114 97.7832 191.375 97.711C191.008 97.6394 190.644 97.5736 190.317 97.5381C190.031 97.4743 189.777 97.395 189.516 97.2653V80.5194C189.652 79.7372 190.668 78.3274 191.158 77.7444C192.063 76.7004 193.309 75.6221 194.753 75.6221C195.687 75.6221 196.517 75.9587 197.243 76.6107C197.989 77.2279 198.614 78.023 199.102 79.0039C199.622 79.9906 200.018 81.0953 200.276 82.3432ZM205.879 91.8063C206.462 89.9342 206.736 87.9557 206.736 85.8875C206.736 82.7894 205.906 79.4347 204.227 76.8164C203.399 75.4725 202.289 74.3478 200.91 73.4623C199.549 72.564 197.883 72.1055 195.921 72.1055C195.181 72.1055 194.442 72.297 193.735 72.6949C193.01 73.0651 192.369 73.4972 191.829 74.0047C191.286 74.4845 190.839 74.9849 190.465 75.5002C190.099 75.9723 189.892 76.3012 189.835 76.4624L189.516 76.3979V61.2178H180.621V64.4622H183.607V99.6572C184.237 99.8333 184.956 100.001 185.793 100.18L188.61 100.626C189.557 100.775 190.477 100.885 191.358 100.954C192.23 101.07 193.01 101.124 193.658 101.124C195.73 101.124 197.573 100.728 199.163 99.9178C200.797 99.1091 202.175 98.0186 203.307 96.6617C204.441 95.27 205.286 93.6443 205.879 91.8063Z" fill="#A0A0A0"></path>
  <path fill-rule="evenodd" clip-rule="evenodd" d="M223.144 87.2353L226.889 86.2996V92.9968C226.739 93.5346 226.44 94.0621 226.136 94.5219C225.763 95.0495 225.294 95.5808 224.732 96.1129C224.168 96.6036 223.531 97.0248 222.818 97.3569C222.132 97.7109 221.428 97.8825 220.702 97.8825C219.514 97.8825 218.551 97.4291 217.811 96.5308C217.133 95.6112 216.787 94.5019 216.787 93.198C216.787 92.4576 216.993 91.7586 217.422 91.0995C217.873 90.452 218.419 89.8826 219.06 89.3854C219.69 88.8636 220.363 88.4077 221.068 88.0279C221.807 87.6506 222.513 87.3862 223.144 87.2353ZM227.159 96.8255V100.457H235.496V97.2073H232.518V81.2526C232.518 80.0183 232.268 78.8452 231.76 77.7483C231.295 76.6171 230.62 75.6221 229.752 74.7856C228.93 73.9531 227.906 73.2843 226.718 72.811C225.553 72.3344 224.277 72.1055 222.866 72.1055C221.502 72.1055 220.261 72.2286 219.138 72.4898C218.035 72.7091 217.051 72.9696 216.17 73.2643C215.329 73.5591 214.644 73.8738 214.107 74.204L212.974 74.8211V79.8668H217.785V76.7822C218.127 76.4282 218.856 76.1032 219.249 75.9245C220.009 75.5402 220.824 75.3473 221.699 75.3473C223.402 75.3473 224.704 75.9722 225.593 77.2543C226.454 78.5163 226.889 79.9977 226.889 81.7021V83.5098L221.956 84.6544C220.851 84.915 219.65 85.3122 218.333 85.8688C217.057 86.3853 215.885 87.0341 214.778 87.8086C213.68 88.5451 212.778 89.4067 212.052 90.394C211.343 91.3336 210.98 92.3519 210.98 93.4211C210.98 95.6466 211.726 97.4878 213.198 98.9343C214.704 100.391 216.814 101.124 219.542 101.124C221.322 101.124 223.001 100.351 224.419 99.3219C225.078 98.8382 225.613 98.3584 226.041 97.8889C226.487 97.3646 226.746 96.997 226.848 96.7578L227.159 96.8255Z" fill="#A0A0A0"></path>
  <path fill-rule="evenodd" clip-rule="evenodd" d="M248.479 80.4942C248.57 80.135 248.763 79.683 249.054 79.1677C249.394 78.6324 249.808 78.0985 250.293 77.5806C251.308 76.5481 252.611 75.6221 254.108 75.6221C254.869 75.6221 255.514 75.8014 256.063 76.1515C256.647 76.4624 257.094 76.8841 257.447 77.4297C257.783 77.9334 258.024 78.4989 258.179 79.1477C258.373 79.761 258.465 80.3646 258.465 80.9779V97.2073H255.812V100.457H267.354V97.2073H264.374V81.7021C264.374 80.6013 264.217 79.4869 263.885 78.3416C263.212 75.9181 261.738 74.1072 259.495 72.9761C258.386 72.4002 257.026 72.1055 255.432 72.1055C253.681 72.1055 252.095 72.8465 250.73 73.9092C250.143 74.3852 249.665 74.8817 249.265 75.3893C248.858 75.8665 248.613 76.227 248.513 76.4624L248.207 76.3979V72.7729H239.582V76.0167H242.563V97.2073H239.582V100.457H251.134V97.2073H248.479V80.4942Z" fill="#A0A0A0"></path>
  <path fill-rule="evenodd" clip-rule="evenodd" d="M271.434 97.2073V100.457H282.6V97.2073H280.328V61.2178H271.434V64.4629H274.422V97.2073H271.434ZM286.501 97.2073V100.457H299.37V97.2073H296.487L286.237 84.263L294.39 76.0168H297.395V72.773H286.722V76.0168H289.859L280.755 85.7895L289.147 97.2073H286.501Z" fill="#A0A0A0"></path>
  <path fill-rule="evenodd" clip-rule="evenodd" d="M81.8116 22.7247H78.836V19.4751H87.7302V26.9733C90.0097 27.2615 92.2962 27.9709 93.8695 28.8963C95.4696 29.8082 96.8202 30.9671 97.9035 32.3665C98.9983 33.7247 99.8519 35.2118 100.417 36.844C100.959 38.435 101.236 39.8924 101.236 41.2538C101.236 42.2418 101.074 43.0956 100.802 43.9217H112.146V11.1773H109.164V7.93024H118.068V43.9217H121.045V47.1674H32.5635V43.9217H51.4836V11.1773H48.5119V7.93024H57.406V43.9217H68.7488C68.4738 43.0956 68.3143 42.2418 68.3143 41.2538C68.3143 39.8924 68.5931 38.435 69.1277 36.844C69.6987 35.2118 70.553 33.7247 71.6459 32.3665C72.7439 30.9671 74.0868 29.8082 75.6818 28.8963C77.2487 27.9767 79.5422 27.268 81.8116 26.9733V22.7247ZM87.7302 30.4054V43.9217H94.6223C95.4919 42.2617 95.4064 39.7286 94.4194 36.8305C93.1294 33.052 90.5252 30.7278 87.7302 30.4054ZM81.8116 43.9217V30.4054C79.0127 30.7343 76.4308 33.0591 75.1286 36.8305C74.1455 39.7286 74.0613 42.2617 74.936 43.9217H81.8116ZM5.73295 45.7732C5.73295 52.2124 8.84951 57.7592 12.7061 57.7592C16.5698 57.7592 19.694 53.706 19.694 45.9293L19.6742 11.1773H16.6961V7.93024H25.5316V46.1221C25.5316 56.4365 19.8159 61.2177 12.768 61.2177C5.71891 61.2177 0 54.3032 0 45.7732H5.73295ZM32.5635 37.3825H35.5416V11.1773H32.5635V7.93024H41.4538V37.3825H44.4479V40.6295H32.5635V37.3825ZM125.111 43.9217H128.099V11.1773H125.111V7.93024H134.003V43.9217H136.988V47.1674H125.111V43.9217ZM263.36 35.3633C263.36 38.7361 261.95 41.7716 259.724 43.9217H278.407C276.32 41.7819 274.994 39.0521 274.384 36.0495C274.021 34.1529 273.856 32.4484 273.856 30.902C273.856 29.4522 274.092 27.8613 274.61 26.1369C275.15 24.3989 275.945 22.8144 277.003 21.3608C278.084 19.8653 279.425 18.6309 281.011 17.6501C282.593 16.6698 284.444 16.19 286.585 16.19C288.718 16.19 290.578 16.6563 292.158 17.5959C293.779 18.4936 295.122 19.6731 296.164 21.1241C297.253 22.5332 298.05 24.1241 298.555 25.8924C299.105 27.6343 299.37 29.2968 299.37 30.902C299.37 32.3188 299.175 33.9775 298.793 35.8767C298.407 37.7146 297.707 39.4842 296.69 41.1809C295.72 42.8589 294.407 44.2906 292.742 45.4707C291.121 46.5961 289.071 47.1674 286.585 47.1674H212.555V52.1228C212.555 53.1856 212.413 54.2555 212.161 55.3182C211.911 56.4191 211.476 57.409 210.859 58.277C209.427 60.4471 207.359 61.2177 204.831 61.2177C203.56 61.2177 202.82 61.0746 201.986 60.776C201.301 60.5644 200.802 60.3613 200.503 60.2117L202.366 57.0601C202.532 57.2039 202.776 57.369 203.071 57.5676C203.54 57.8346 204.041 57.9758 204.591 57.9758C205.303 57.9758 205.825 57.5199 206.172 56.7035C206.51 55.9419 206.684 55.0816 206.684 54.1252V22.7247H203.37V19.4751H212.555V43.9217H224.747V22.7247H221.757V19.4751H230.648V23.5547L251.664 23.5412C258.117 23.5412 263.36 28.8351 263.36 35.3633ZM230.648 43.9217H248.398C252.974 43.9217 256.677 39.8789 256.677 35.5C256.677 31.0967 252.96 27.5763 248.398 27.5763H230.648V43.9217ZM292.626 27.4331C292.47 26.1472 292.158 24.9425 291.677 23.8217C291.188 22.6493 290.543 21.6755 289.696 20.9087C288.882 20.0768 287.842 19.6731 286.585 19.6731C285.366 19.6731 284.35 20.0645 283.529 20.8429C281.799 22.5119 280.958 24.9806 280.592 27.306C280.401 28.5881 280.3 29.7682 280.3 30.8452C280.3 31.9963 280.377 33.3126 280.537 34.7939C280.727 36.2688 281.046 37.6708 281.48 38.9909C281.963 40.2806 282.599 41.3911 283.397 42.3198C284.22 43.2355 285.282 43.6773 286.585 43.6773C287.875 43.6773 288.945 43.2555 289.749 42.3849C290.598 41.5272 291.24 40.458 291.677 39.1759C292.158 37.8861 292.47 36.508 292.626 35.0344C292.823 33.5189 292.924 32.1234 292.924 30.8452C292.924 29.8424 292.823 28.7087 292.626 27.4331ZM189.802 36.3268L189.493 36.2688C189.388 36.5422 189.144 36.9336 188.744 37.4541C187.89 38.5865 186.767 39.5042 185.493 40.0814C184.809 40.4477 184.096 40.6295 183.35 40.6295C181.457 40.6295 179.85 40.1491 178.477 39.2037C177.129 38.2499 176.024 37.0433 175.152 35.5761C174.279 34.1013 173.628 32.4626 173.187 30.6524C172.781 28.8409 172.581 27.0855 172.581 25.3926C172.581 24.0384 172.849 22.5635 173.401 20.9803C173.988 19.3642 174.815 17.8706 175.912 16.5047C177 15.1092 178.35 13.9581 179.95 13.0352C181.579 12.0827 183.431 11.6055 185.508 11.6055C186.274 11.6055 187.18 11.6771 188.242 11.8222C189.306 11.9376 190.359 12.0827 191.392 12.2678C192.408 12.4181 193.322 12.5889 194.139 12.774L195.663 13.1319V47.1674H154.048V43.9217H157.035V22.7247H154.048V19.4751H162.951V43.9217H189.802V36.3268ZM189.802 32.175V15.4974C189.516 15.4284 189.245 15.3917 188.953 15.3523L187.801 15.1311C187.386 15.0589 186.98 14.9996 186.576 14.966C186.159 14.888 185.806 14.8487 185.508 14.8487C184.395 14.8487 183.398 15.2369 182.522 16.0075C181.701 16.7633 180.99 17.6913 180.395 18.7786C179.843 19.8375 179.395 20.9648 179.056 22.163C178.758 23.3619 178.611 24.4388 178.611 25.3926C178.611 26.4419 178.723 27.642 178.941 28.986C179.344 31.3315 180.236 33.9987 181.803 35.8289C182.56 36.6654 183.466 37.1052 184.51 37.1052C185.138 37.1052 185.738 36.9059 186.308 36.5216C186.905 36.1514 187.456 35.7058 187.942 35.2118C188.595 34.4992 189.585 33.1449 189.802 32.175ZM185.853 0C187.949 0 189.635 1.66511 189.635 3.70555C189.635 5.74212 187.949 7.39821 185.853 7.39821C183.751 7.39821 182.068 5.74212 182.068 3.70555C182.068 1.66511 183.751 0 185.853 0Z" fill="#A0A0A0"></path>
  <path fill-rule="evenodd" clip-rule="evenodd" d="M134.483 182.924H164.589V152.829H134.483V182.924ZM111.41 167.879C111.41 146.824 128.474 129.74 149.541 129.74C170.603 129.74 187.67 146.824 187.67 167.879C187.67 188.933 170.603 206 149.541 206C128.474 206 111.41 188.933 111.41 167.879ZM118.336 167.879C118.336 185.106 132.304 199.069 149.541 199.069C166.775 199.069 180.749 185.106 180.749 167.879C180.749 150.643 166.775 136.671 149.541 136.671C132.304 136.671 118.336 150.643 118.336 167.879Z" fill="#A0A0A0"></path>
</svg>
