<?xml version="1.0" encoding="UTF-8"?>
<svg xmlns="http://www.w3.org/2000/svg" width="367" height="206" viewBox="0 0 367 206" fill="none">
  <path fill-rule="evenodd" clip-rule="evenodd" d="M0.57335 1.48349C0.209942 2.42938 0.0699806 9.242 0.262734 16.6202L0.613865 30.0369L6.01587 30.6503C10.1067 31.1153 12.044 32.1041 13.9961 34.7246C16.4614 38.0358 16.5915 39.8258 16.9623 75.8236C17.1747 96.5252 16.9967 115.848 16.567 118.764C15.5836 125.422 12.3325 128.797 6.9023 128.797C0.569667 128.797 -0.128912 130.559 0.263962 145.537L0.613865 158.855L63.2281 159.177C113.542 159.436 127.651 159.154 135.05 157.741C152.533 154.401 161.195 148.781 166.778 137.153C171.403 127.525 172.584 118.775 170.646 108.511C167.472 91.7037 157.262 82.4411 136.896 77.8933C133.339 77.0983 133.503 76.9388 141.838 73.0804C157.316 65.9169 164.21 57.437 165.423 44.0731C167.249 23.9505 155.739 9.98792 131.959 3.47465C122.637 0.921602 119.209 0.765794 61.6959 0.277513C10.6137 -0.156786 1.13074 0.0296926 0.57335 1.48349ZM215.672 0.797692C215.221 1.24671 214.828 2.76554 214.799 4.17149C214.714 8.16607 211.731 15.6007 208.125 20.8012C203.655 27.2446 196.687 31.8195 187.52 34.3271L179.862 36.4213V48.5645V60.7078L188.15 61.0709L196.437 61.4328L196.429 89.2881C196.426 104.754 195.856 119.182 195.149 121.728C193.769 126.694 190.897 128.846 184.159 129.965L179.862 130.679V144.767V158.855L221.912 159.177L263.962 159.5V144.924V130.347L258.87 129.665C249.133 128.359 247.041 122.997 246.863 98.8869L246.774 86.7657L252.198 87.3767C259.544 88.2036 265.791 92.327 269.639 98.8881C272.329 103.475 273.008 106.618 273.905 118.645C275.754 143.392 280.481 153.156 293.943 160.036C300.478 163.375 302.192 163.698 313.534 163.729C328.717 163.769 336.964 161.259 344.524 154.296C351.009 148.321 354.142 140.716 353.278 133.044C352.475 125.935 351.775 125.31 348.285 128.587C346.724 130.052 344.004 131.251 342.238 131.251C336.637 131.251 334.701 127.9 331.602 112.848C329.853 104.348 324.175 94.3206 318.782 90.2107C316.501 88.4723 311.658 85.9941 308.021 84.7034C304.384 83.4128 302.576 82.316 304.005 82.2669C308.663 82.1062 323.774 73.6558 328.243 68.7129C337.99 57.9327 341.315 43.5971 337.047 30.757C334.241 22.3152 324.108 11.3877 314.914 6.88893C302.61 0.868848 295.146 0.0235584 254.038 0.000248543C233.386 -0.010793 216.121 0.347443 215.672 0.797692ZM98.8322 19.4444C104.949 22.2268 112.17 30.0896 114.169 36.1404C116.649 43.6511 115.247 54.3294 110.986 60.3888C103.791 70.6181 93.704 74.9513 82.5378 72.6105C73.5287 70.7224 67.2206 66.3954 62.9887 59.2012C56.7702 48.6283 58.9077 33.1003 67.713 24.8989C75.5459 17.6029 89.4376 15.1676 98.8322 19.4444ZM264.199 18.5978C270.967 20.6246 279.311 28.3536 281.822 34.9246C286.752 47.8248 281.854 61.6622 269.698 69.1717C264.813 72.1909 262.487 72.8031 255.617 72.8816L247.388 72.9761L247.057 45.0656L246.727 17.1551H253.053C256.533 17.1551 261.548 17.8041 264.199 18.5978ZM102.795 91.5443C114.653 98.8697 118.714 114.322 112.211 127.364C103.381 145.069 80.7146 148.121 66.6571 133.498C56.8562 123.302 56.5811 107.859 66.004 96.8577C75.5962 85.6591 89.9214 83.5907 102.795 91.5443ZM59.3178 177.817C56.2607 179.118 54.0201 182.703 54.0201 186.289C54.0201 189.523 59.6321 193.819 63.8567 193.819C67.4993 193.819 70.6792 196.604 69.3999 198.673C68.2225 200.577 63.1372 200.222 61.3865 198.113C59.5228 195.871 54.0201 195.666 54.0201 197.84C54.0201 201.043 57.9046 204.787 62.0274 205.56C70.5797 207.164 76.1192 203.73 76.1192 196.828C76.1192 192.015 73.2979 189.662 65.9905 188.381C62.516 187.772 61.3865 186.986 61.3865 185.176C61.3865 183.35 62.2324 182.778 64.9383 182.778C66.9628 182.778 68.7946 183.569 69.1973 184.618C70.096 186.959 76.1192 187.078 76.1192 184.754C76.1192 179.215 65.9193 175.003 59.3178 177.817ZM100.426 177.613C97.9777 177.915 96.13 179.61 93.3774 184.081C91.3259 187.413 89.089 190.139 88.4076 190.139C87.7262 190.139 87.1688 187.379 87.1688 184.005C87.1688 178.279 86.9638 177.871 84.0995 177.871H81.0302V191.366V204.861H84.0995C86.7882 204.861 87.1688 204.33 87.1688 200.567C87.1688 197.488 87.7127 196.273 89.0914 196.273C92.3449 196.273 95.8243 198.729 97.0189 201.869C97.8734 204.114 99.0679 204.861 101.807 204.861C105.372 204.861 105.426 204.768 104.163 200.874C103.452 198.681 101.51 195.639 99.8476 194.114L96.8249 191.341L100.723 184.533C102.867 180.788 104.423 177.608 104.181 177.464C103.941 177.321 102.25 177.387 100.426 177.613ZM112.03 177.586C109.362 178.025 109.268 178.497 109.268 191.452V204.861H112.951H116.634V191.438C116.634 184.055 116.219 177.817 115.714 177.574C115.208 177.331 113.549 177.336 112.03 177.586ZM211.555 179.036C206.545 182.09 205.031 185.01 205.031 191.626C205.031 203.568 217.27 209.99 227.255 203.287C233.194 199.301 235.479 192.356 232.883 186.179C229.287 177.622 219.342 174.292 211.555 179.036ZM337.012 178.11C333.586 180.051 332.755 181.583 332.733 186.002C332.709 191.163 333.978 192.098 344.071 194.342C349.063 195.452 348.787 199.954 343.726 199.954C341.551 199.954 339.71 199.189 339.298 198.113C338.909 197.101 337.268 196.273 335.653 196.273C331.558 196.273 331.795 200.277 336.091 203.665C342.786 208.944 354.814 204.652 354.814 196.985C354.814 192.628 352.15 190.198 345.606 188.585C341.64 187.608 339.467 186.42 339.467 185.232C339.467 182.638 346.01 182.031 346.972 184.536C348.017 187.257 353.591 187.067 353.568 184.311C353.512 178.112 343.576 174.39 337.012 178.11ZM0 191.366V204.861H9.63154C17.4031 204.861 19.6559 204.428 21.295 202.617C24.0218 199.608 23.8867 194.19 21.0421 192.415C19.0495 191.171 18.9586 190.6 20.3312 187.958C23.7394 181.393 19.5577 177.871 8.35961 177.871H0V191.366ZM30.3372 189.219C27.937 195.461 25.5957 201.533 25.1329 202.714C24.4416 204.478 24.972 204.861 28.1064 204.861C30.6785 204.861 31.921 204.261 31.921 203.021C31.921 201.607 33.49 201.18 38.6735 201.18C43.857 201.18 45.426 201.607 45.426 203.021C45.426 204.261 46.6685 204.861 49.2405 204.861C52.3553 204.861 52.9102 204.467 52.2657 202.714C51.8311 201.533 49.4689 195.461 47.0159 189.219C42.6857 178.199 42.4426 177.871 38.6281 177.871C34.8074 177.871 34.5827 178.18 30.3372 189.219ZM121.545 191.366V204.861H124.558C127.416 204.861 127.591 204.445 127.934 196.758L128.298 188.654L134.123 196.758C139.081 203.655 140.496 204.861 143.638 204.861H147.328V191.366V177.871H143.644H139.961V186.115V194.36L134.218 186.115C129.431 179.245 127.896 177.871 125.01 177.871H121.545V191.366ZM179.249 191.366V204.861H182.932C186.323 204.861 186.615 204.52 186.615 200.567C186.615 195.503 188.075 195.168 192.195 199.285C193.852 200.941 195.209 202.873 195.209 203.579C195.209 204.284 196.903 204.861 198.974 204.861C202.311 204.861 202.645 204.546 201.899 202.101C201.436 200.582 200.338 198.512 199.459 197.5C198.131 195.969 198.259 195.173 200.218 192.763C203.269 189.015 203.206 185.137 200.03 181.103C197.69 178.129 196.756 177.871 188.367 177.871H179.249V191.366ZM236.952 191.366V204.861H246.583C254.355 204.861 256.608 204.428 258.247 202.617C260.974 199.608 260.839 194.19 257.994 192.415C256.001 191.171 255.91 190.6 257.283 187.958C260.691 181.393 256.51 177.871 245.311 177.871H236.952V191.366ZM263.962 191.366V204.861H273.593C281.365 204.861 283.618 204.428 285.257 202.617C288.079 199.501 287.825 194.333 284.744 192.177C283.151 191.063 282.691 190.09 283.516 189.581C284.24 189.134 284.833 186.887 284.833 184.589C284.833 179.176 282.345 177.871 272.023 177.871H263.962V191.366ZM290.972 191.366V204.861H294.655H298.338V191.366V177.871H294.655H290.972V191.366ZM303.249 191.366V204.861H306.262C309.128 204.861 309.293 204.455 309.638 196.596L310.002 188.331L315.896 196.596C320.889 203.599 322.342 204.861 325.411 204.861H329.032V191.366V177.871H325.348H321.665V186.115V194.36L315.922 186.115C311.135 179.245 309.6 177.871 306.714 177.871H303.249V191.366ZM355.55 178.809C356.293 179.305 357.164 180.524 357.484 181.519C357.894 182.793 358.278 182.52 358.781 180.599C359.356 178.399 358.982 177.874 356.847 177.889C355.309 177.9 354.766 178.285 355.55 178.809ZM360.324 180.193C359.377 182.656 360.383 183.169 363.204 181.66C365.036 180.68 365.823 180.734 366.281 181.868C366.62 182.706 366.941 182.207 366.994 180.761C367.07 178.706 366.423 178.169 364.037 178.307C362.356 178.404 360.686 179.253 360.324 180.193ZM14.3362 184.742C15.1637 186.896 12.8777 188.864 9.5149 188.894C8.03672 188.906 7.36638 187.955 7.36638 185.845C7.36638 183.381 7.97779 182.778 10.4738 182.778C12.1914 182.778 13.92 183.656 14.3362 184.742ZM195.209 187.206C195.209 189.74 194.625 190.139 190.912 190.139C187.025 190.139 186.615 189.811 186.615 186.705C186.615 183.503 186.905 183.304 190.912 183.772C194.485 184.189 195.209 184.768 195.209 187.206ZM224.675 185.232C229.708 190.262 226.131 199.954 219.239 199.954C215.883 199.954 211.169 194.808 211.169 191.145C211.169 188.042 216.542 182.778 219.708 182.778C221.09 182.778 223.324 183.882 224.675 185.232ZM251.288 184.742C252.115 186.896 249.829 188.864 246.467 188.894C244.989 188.906 244.318 187.955 244.318 185.845C244.318 183.381 244.93 182.778 247.426 182.778C249.143 182.778 250.872 183.656 251.288 184.742ZM278.298 184.742C279.126 186.896 276.84 188.864 273.477 188.894C271.999 188.906 271.328 187.955 271.328 185.845C271.328 183.381 271.94 182.778 274.436 182.778C276.153 182.778 277.882 183.656 278.298 184.742ZM41.6876 193.513C41.7183 194.357 40.3616 195.046 38.6735 195.046C35.1794 195.046 35.0492 194.548 37.0541 188.803L38.5041 184.648L40.0682 188.313C40.9276 190.329 41.6569 192.67 41.6876 193.513ZM158.623 186.704C157.812 187.513 157.149 189.611 157.149 191.366C157.149 193.12 157.812 195.218 158.623 196.028C159.433 196.837 161.532 197.5 163.288 197.5C165.044 197.5 167.143 196.837 167.953 196.028C168.764 195.218 169.427 193.12 169.427 191.366C169.427 189.611 168.764 187.513 167.953 186.704C167.143 185.894 165.044 185.232 163.288 185.232C161.532 185.232 159.433 185.894 158.623 186.704ZM15.9605 196.887C15.9605 199.573 15.4289 199.954 11.6634 199.954C7.89798 199.954 7.36638 199.573 7.36638 196.887C7.36638 194.2 7.89798 193.819 11.6634 193.819C15.4289 193.819 15.9605 194.2 15.9605 196.887ZM252.912 196.887C252.912 199.573 252.381 199.954 248.615 199.954C244.85 199.954 244.318 199.573 244.318 196.887C244.318 194.2 244.85 193.819 248.615 193.819C252.381 193.819 252.912 194.2 252.912 196.887ZM279.922 196.887C279.922 199.573 279.391 199.954 275.625 199.954C271.86 199.954 271.328 199.573 271.328 196.887C271.328 194.2 271.86 193.819 275.625 193.819C279.391 193.819 279.922 194.2 279.922 196.887Z" fill="#A0A0A0"></path>
</svg>
