<?xml version="1.0" encoding="UTF-8"?>
<svg xmlns="http://www.w3.org/2000/svg" width="483" height="206" viewBox="0 0 483 206" fill="none">
  <path fill-rule="evenodd" clip-rule="evenodd" d="M153.5 1.57508C135.071 4.63782 116.036 18.2762 107.977 34.1904C99.4816 50.9701 99.0655 69.3296 106.786 86.7714L109.891 93.7838H124.607H139.324L134.06 86.893C114.502 61.2901 132.574 24.0937 164.564 24.1106C175.607 24.1168 182.797 26.7669 190.788 33.7762C206.682 47.721 208.367 72.745 194.474 88.5561L189.88 93.7838H204.765H219.65L223.608 85.1438C230.848 69.3435 229.981 49.4687 221.35 33.3281C216.195 23.6887 203.007 11.3823 192.901 6.77974C185.929 3.60612 167.963 -0.471372 163.231 0.0444743C162.383 0.138405 158.005 0.826713 153.5 1.57508ZM5.27215 49.1284V93.7838H16.0596H26.847V76.8456V59.9073H45.3396H63.8323V76.8456V93.7838H74.6197H85.4071V49.1284V4.47306H74.6197H63.8323V22.1812V39.8894H45.3396H26.847V22.1812V4.47306H16.0596H5.27215V49.1284ZM245.677 49.1284V93.7838H256.423H267.167L267.596 71.8534L268.022 49.9245L277.646 64.9241C287.031 79.5526 287.414 79.9237 293.057 79.8929C298.68 79.8621 299.136 79.4186 309.237 64.1095L319.629 48.3585L319.639 71.0712L319.648 93.7838H330.435H341.223V49.1284V4.47306L333.132 4.48075L325.042 4.48845L309.138 28.5654L293.236 52.6424L277.147 28.5577L261.058 4.47306H253.369H245.677V49.1284ZM359.715 49.1284V93.7838H393.619H427.522V84.5864V75.3873L404.791 74.9623L382.061 74.5358V66.8366V59.1374L401.709 58.7062L421.358 58.2751V49.0822V39.8894H401.244H381.128L381.595 31.8052L382.061 23.7211L404.791 23.2945L427.522 22.8695V13.6705V4.47306H393.619H359.715V49.1284ZM145.508 73.4225C145.508 74.0816 146.59 76.165 147.914 78.0513C154.069 86.8314 169.632 88.9256 177.787 82.0687C180.413 79.8606 183.266 76.7424 184.124 75.1394C185.617 72.3508 184.825 72.226 165.596 72.226C154.548 72.226 145.508 72.765 145.508 73.4225ZM32.2407 115.864C17.7979 120.643 9.28045 128.005 3.44754 140.749C0.736823 146.67 -0.058364 151.117 0.00327832 159.997C0.145056 180.859 10.3869 195.921 29.2834 203.065C45.5431 209.21 65.9698 205.464 78.2304 194.089C82.4422 190.181 90.0303 177.203 90.0303 173.906C90.0303 172.962 85.6075 172.316 79.1427 172.316C68.8331 172.316 68.041 172.571 64.1899 177.145C56.6433 186.107 46.2859 188.284 35.1764 183.242C26.3908 179.256 21.763 171.343 21.6089 160.045C21.4502 148.293 26.7375 139.911 36.7159 136.105C47.2814 132.072 55.9853 133.895 62.9493 141.597C68.3646 147.587 68.6112 147.678 79.3431 147.678C89.9317 147.678 90.2075 147.581 89.1658 144.214C83.5733 126.142 69.0504 115.288 49.1923 114.339C42.9325 114.04 35.8175 114.679 32.2407 115.864ZM103.9 159.841V204.652H114.687H125.475V191.564V178.475H133.94H142.406L151.124 191.564L159.84 204.652H171.938C178.592 204.652 184.035 204.29 184.035 203.849C184.035 203.405 179.627 196.457 174.24 188.409L164.446 173.774L170.218 168.006C185.245 152.991 181.168 129.791 161.689 119.476C156.283 116.614 152.351 116.139 129.713 115.622L103.9 115.031V159.841ZM196.363 159.997V204.652H230.267H264.17V195.455V186.256L241.439 185.831L218.709 185.404V177.705V170.006L238.357 169.575L258.006 169.144V159.951V150.758H237.892H217.776L218.243 142.674L218.709 134.59L241.439 134.163L264.17 133.738V124.539V115.342H230.267H196.363V159.997ZM279.58 160.156V204.97L304.623 204.369C328.216 203.804 330.175 203.522 338.486 199.499C365.397 186.468 371.545 150.113 350.407 128.992C339.745 118.338 328.897 115.342 300.993 115.342H279.58V160.156ZM376.667 159.997V204.652H387.454H398.242V159.997V115.342H387.454H376.667V159.997ZM410.57 125.351V135.36H422.899H435.227V170.006V204.652H446.015H456.802V170.006V135.36H469.901H483V125.351V115.342H446.785H410.57V125.351ZM147.39 135.427C157.681 138.284 160.967 147.771 154.054 154.677C150.665 158.064 148.982 158.457 137.872 158.457H125.475V146.138V133.82L133.565 133.829C138.014 133.834 144.235 134.553 147.39 135.427ZM329.851 139.311C337.928 145.338 340.452 150.262 340.452 159.997C340.452 170.098 337.66 175.218 328.91 181.17C324.767 183.988 321.698 184.634 312.485 184.634H301.155V159.834V135.033L313.379 135.587C322.71 136.011 326.609 136.893 329.851 139.311Z" fill="#A0A0A0"></path>
</svg>
