<svg width="605" height="416" viewBox="0 0 605 416" fill="none" xmlns="http://www.w3.org/2000/svg">
<path fill-rule="evenodd" clip-rule="evenodd" d="M24.5769 176.165L32.1113 174.275V187.8C31.824 188.886 31.2197 189.951 30.5936 190.88C29.8592 191.945 28.893 193.018 27.7708 194.092C26.6473 195.083 25.359 195.934 23.9057 196.604C22.5233 197.319 21.0919 197.666 19.6451 197.666C17.25 197.666 15.2814 196.75 13.8165 194.936C12.4277 193.079 11.7281 190.839 11.7281 188.206C11.7281 186.711 12.1662 185.299 13.0087 183.968C13.9325 182.661 15.0147 181.511 16.3185 180.507C17.6121 179.453 18.961 178.532 20.3846 177.765C21.892 177.003 23.2912 176.47 24.5769 176.165ZM32.6743 195.531V202.865H49.5183V196.302H43.4978V164.083C43.4978 161.591 42.9966 159.222 41.975 157.007C41.0306 154.722 39.6752 152.713 37.9205 151.024C36.2508 149.342 34.21 147.992 31.7969 147.036C29.4405 146.074 26.8664 145.611 23.9959 145.611C21.2749 145.611 18.7497 145.86 16.4796 146.388C14.2752 146.83 12.2744 147.356 10.481 147.952C8.80225 148.547 7.3902 149.182 6.30025 149.849L4.02887 151.095V161.285H13.7289V155.056C14.4466 154.341 15.8934 153.684 16.7282 153.324C18.2408 152.547 19.8796 152.158 21.6485 152.158C25.073 152.158 27.7154 153.42 29.4959 156.009C31.2507 158.558 32.1113 161.549 32.1113 164.991V168.641L22.1664 170.953C19.9543 171.479 17.509 172.281 14.8511 173.405C12.2898 174.448 9.87932 175.758 7.68008 177.323C5.48085 178.81 3.6385 180.55 2.17878 182.543C0.73453 184.441 0.015625 186.497 0.015625 188.656C0.015625 193.151 1.50755 196.869 4.47851 199.79C7.53579 202.732 11.7887 204.213 17.2977 204.213C20.8935 204.213 24.2626 202.651 27.1266 200.573C28.4626 199.596 29.5642 198.627 30.4403 197.679C31.3305 196.62 31.851 195.878 32.0585 195.395L32.6743 195.531Z" fill="#A0A0A0"/>
<path fill-rule="evenodd" clip-rule="evenodd" d="M57.7734 196.302V202.864H81.746V196.302H75.7203V123.624H57.7734V130.177H63.7798V196.302H57.7734Z" fill="#A0A0A0"/>
<path fill-rule="evenodd" clip-rule="evenodd" d="M151.396 196.302V202.864H174.712V196.302H168.701V164.657C168.701 162.671 168.369 160.544 167.699 158.321C167.11 156.045 166.096 153.974 164.631 152.133C163.26 150.215 161.383 148.663 159.047 147.486C156.808 146.246 154.012 145.611 150.616 145.611C148.821 145.611 147.135 145.982 145.616 146.697C144.093 147.369 142.744 148.229 141.574 149.238C140.402 150.207 139.423 151.217 138.62 152.242C137.873 153.211 137.414 153.934 137.2 154.409L136.595 154.279V123.624H118.613V130.177H124.639V196.302H118.613V202.864H141.944V196.302H136.595V162.602C136.67 162.007 137.081 161.14 137.744 160.082C138.436 158.944 139.257 157.838 140.246 156.757C141.305 155.691 142.478 154.791 143.751 154.009C145.08 153.15 146.464 152.712 147.938 152.712C149.493 152.712 150.807 153.074 151.902 153.782C153.054 154.486 153.985 155.373 154.693 156.472C155.369 157.492 155.878 158.642 156.177 159.949C156.547 161.183 156.737 162.365 156.737 163.536V196.302H151.396Z" fill="#A0A0A0"/>
<path fill-rule="evenodd" clip-rule="evenodd" d="M182.934 196.302V202.865H206.934V196.302H200.913V146.959H182.934V153.51H188.963V196.302H182.934ZM200.236 136.582C201.803 135.142 202.579 133.382 202.579 131.304C202.579 129.223 201.803 127.464 200.236 126.023C198.729 124.561 196.95 123.861 194.866 123.861C190.757 123.861 187.29 127.053 187.29 131.304C187.29 135.544 190.757 138.741 194.866 138.741C196.95 138.741 198.729 138.029 200.236 136.582Z" fill="#A0A0A0"/>
<path fill-rule="evenodd" clip-rule="evenodd" d="M215.16 196.302V202.864H239.143V196.302H233.117V123.624H215.16V130.177H221.182V196.302H215.16Z" fill="#A0A0A0"/>
<path fill-rule="evenodd" clip-rule="evenodd" d="M271.389 176.165L278.926 174.275V187.8C278.636 188.886 278.032 189.951 277.424 190.88C276.664 191.945 275.703 193.018 274.582 194.092C273.445 195.083 272.149 195.934 270.71 196.604C269.333 197.319 267.909 197.666 266.442 197.666C264.047 197.666 262.086 196.75 260.62 194.936C259.237 193.079 258.538 190.839 258.538 188.206C258.538 186.711 258.96 185.299 259.812 183.968C260.735 182.661 261.824 181.511 263.121 180.507C264.401 179.453 265.758 178.532 267.187 177.765C268.684 177.003 270.088 176.47 271.389 176.165ZM279.479 195.531V202.865H296.323V196.302H290.308V164.083C290.308 161.591 289.801 159.222 288.772 157.007C287.829 154.722 286.472 152.713 284.73 151.024C283.027 149.342 280.991 147.992 278.581 147.036C276.266 146.074 273.649 145.611 270.798 145.611C268.065 145.611 265.566 145.86 263.276 146.388C261.059 146.83 259.074 147.356 257.305 147.952C255.591 148.547 254.21 149.182 253.133 149.849L250.831 151.095V161.285H260.539V155.056C261.238 154.341 262.703 153.684 263.525 153.324C265.061 152.547 266.704 152.158 268.458 152.158C271.888 152.158 274.512 153.42 276.302 156.009C278.04 158.558 278.926 161.549 278.926 164.991V168.641L268.963 170.953C266.745 171.479 264.314 172.281 261.656 173.405C259.092 174.448 256.681 175.758 254.485 177.323C252.265 178.81 250.443 180.55 248.976 182.543C247.537 184.441 246.812 186.497 246.812 188.656C246.812 193.151 248.317 196.869 251.279 199.79C254.326 202.732 258.593 204.213 264.102 204.213C267.703 204.213 271.085 202.651 273.958 200.573C275.28 199.596 276.347 198.627 277.237 197.679C278.127 196.62 278.671 195.878 278.868 195.395L279.479 195.531Z" fill="#A0A0A0"/>
<path fill-rule="evenodd" clip-rule="evenodd" d="M304.555 196.302V202.864H328.55V196.302H322.516V123.624H304.555V130.177H310.571V196.302H304.555Z" fill="#A0A0A0"/>
<path fill-rule="evenodd" clip-rule="evenodd" d="M404.441 166.285C404.958 168.709 405.233 171.091 405.233 173.442C405.233 176.02 404.934 178.734 404.317 181.614C403.363 186.697 401.336 191.856 397.425 195.323C395.646 196.881 393.508 197.665 391.076 197.665C389.537 197.665 387.959 197.465 386.467 197.319C385.725 197.174 384.991 197.042 384.33 196.97C383.753 196.841 383.241 196.681 382.712 196.419V162.602C382.987 161.022 385.039 158.176 386.029 156.998C387.855 154.89 390.372 152.712 393.288 152.712C395.173 152.712 396.851 153.392 398.316 154.709C399.823 155.955 401.084 157.561 402.07 159.542C403.12 161.534 403.92 163.765 404.441 166.285ZM415.756 185.395C416.934 181.614 417.488 177.619 417.488 173.442C417.488 167.186 415.812 160.412 412.419 155.124C410.748 152.41 408.507 150.139 405.721 148.351C402.973 146.537 399.609 145.611 395.646 145.611C394.152 145.611 392.66 145.998 391.232 146.801C389.767 147.549 388.474 148.421 387.383 149.446C386.288 150.415 385.384 151.426 384.629 152.466C383.89 153.42 383.472 154.084 383.357 154.409L382.712 154.279V123.624H364.75V130.176H370.78V201.249C372.052 201.605 373.504 201.943 375.193 202.304L380.883 203.205C382.795 203.508 384.653 203.729 386.432 203.868C388.193 204.103 389.767 204.212 391.076 204.212C395.261 204.212 398.983 203.411 402.194 201.775C405.494 200.142 408.276 197.94 410.563 195.2C412.852 192.39 414.559 189.107 415.756 185.395Z" fill="#A0A0A0"/>
<path fill-rule="evenodd" clip-rule="evenodd" d="M450.622 176.165L458.184 174.275V187.8C457.882 188.886 457.278 189.951 456.665 190.88C455.91 191.945 454.963 193.018 453.828 194.092C452.689 195.083 451.403 195.934 449.963 196.604C448.579 197.319 447.156 197.666 445.691 197.666C443.292 197.666 441.348 196.75 439.853 194.936C438.484 193.079 437.784 190.839 437.784 188.206C437.784 186.711 438.201 185.299 439.067 183.968C439.978 182.661 441.081 181.511 442.374 180.507C443.647 179.453 445.007 178.532 446.43 177.765C447.922 177.003 449.347 176.47 450.622 176.165ZM458.73 195.531V202.865H475.566V196.302H469.552V164.083C469.552 161.591 469.047 159.222 468.02 157.007C467.081 154.722 465.718 152.713 463.966 151.024C462.305 149.342 460.238 147.992 457.84 147.036C455.486 146.074 452.909 145.611 450.059 145.611C447.306 145.611 444.8 145.86 442.533 146.388C440.305 146.83 438.317 147.356 436.538 147.952C434.84 148.547 433.456 149.182 432.372 149.849L430.085 151.095V161.285H439.8V155.056C440.49 154.341 441.963 153.684 442.757 153.324C444.291 152.547 445.937 152.158 447.703 152.158C451.143 152.158 453.773 153.42 455.567 156.009C457.305 158.558 458.184 161.549 458.184 164.991V168.641L448.222 170.953C445.992 171.479 443.566 172.281 440.907 173.405C438.33 174.448 435.962 175.758 433.728 177.323C431.511 178.81 429.689 180.55 428.222 182.543C426.79 184.441 426.059 186.497 426.059 188.656C426.059 193.151 427.563 196.869 430.537 199.79C433.579 202.732 437.839 204.213 443.348 204.213C446.942 204.213 450.333 202.651 453.197 200.573C454.527 199.596 455.607 198.627 456.473 197.679C457.373 196.62 457.897 195.878 458.101 195.395L458.73 195.531Z" fill="#A0A0A0"/>
<path fill-rule="evenodd" clip-rule="evenodd" d="M501.779 162.552C501.963 161.826 502.352 160.913 502.941 159.873C503.626 158.792 504.464 157.714 505.443 156.668C507.491 154.583 510.123 152.713 513.147 152.713C514.683 152.713 515.985 153.075 517.093 153.782C518.274 154.41 519.177 155.261 519.889 156.363C520.568 157.38 521.054 158.522 521.368 159.833C521.759 161.071 521.944 162.29 521.944 163.528V196.302H516.587V202.865H539.896V196.302H533.877V164.991C533.877 162.768 533.56 160.518 532.89 158.205C531.532 153.311 528.555 149.654 524.026 147.369C521.786 146.206 519.039 145.611 515.819 145.611C512.284 145.611 509.081 147.108 506.325 149.254C505.14 150.215 504.174 151.218 503.366 152.243C502.544 153.206 502.051 153.934 501.847 154.41L501.23 154.279V146.959H483.812V153.51H489.832V196.302H483.812V202.865H507.141V196.302H501.779V162.552Z" fill="#A0A0A0"/>
<path fill-rule="evenodd" clip-rule="evenodd" d="M548.137 196.302V202.864H570.686V196.302H566.098V123.624H548.137V130.177H554.171V196.302H548.137ZM578.564 196.302V202.864H604.553V196.302H598.731L578.031 170.162L594.495 153.509H600.564V146.959H579.01V153.509H585.346L566.961 173.245L583.907 196.302H578.564Z" fill="#A0A0A0"/>
<path fill-rule="evenodd" clip-rule="evenodd" d="M165.212 45.8907H159.203V39.3284H177.164V54.4703C181.767 55.0524 186.385 56.485 189.562 58.3538C192.793 60.1953 195.52 62.5355 197.708 65.3615C199.919 68.1042 201.643 71.1073 202.783 74.4034C203.878 77.6162 204.438 80.5594 204.438 83.3086C204.438 85.3037 204.111 87.028 203.562 88.6963H226.469V22.5716H220.448V16.0145H238.429V88.6963H244.441V95.2508H65.7592V88.6963H103.967V22.5716H97.9657V16.0145H115.927V88.6963H138.832C138.277 87.028 137.955 85.3037 137.955 83.3086C137.955 80.5594 138.518 77.6162 139.598 74.4034C140.751 71.1073 142.476 68.1042 144.683 65.3615C146.9 62.5355 149.612 60.1953 152.833 58.3538C155.997 56.4967 160.629 55.0655 165.212 54.4703V45.8907ZM177.164 61.4012V88.6963H191.082C192.838 85.3441 192.665 80.2287 190.672 74.3761C188.067 66.7459 182.808 62.0523 177.164 61.4012ZM165.212 88.6963V61.4012C159.56 62.0654 154.346 66.7602 151.716 74.3761C149.731 80.2287 149.561 85.3441 151.327 88.6963H165.212ZM11.5772 92.4352C11.5772 105.439 17.8709 116.64 25.659 116.64C33.4613 116.64 39.7704 108.455 39.7704 92.7503L39.7305 22.5716H33.7164V16.0145H51.5589V93.1397C51.5589 113.969 40.0165 123.624 25.784 123.624C11.5489 123.624 0 109.661 0 92.4352H11.5772ZM65.7592 75.4909H71.7733V22.5716H65.7592V16.0145H83.7125V75.4909H89.7588V82.048H65.7592V75.4909ZM252.651 88.6963H258.686V22.5716H252.651V16.0145H270.609V88.6963H276.637V95.2508H252.651V88.6963ZM531.833 71.4133C531.833 78.2244 528.986 84.3544 524.49 88.6963H562.22C558.006 84.3752 555.329 78.8625 554.096 72.799C553.363 68.9689 553.029 65.5269 553.029 62.404C553.029 59.4764 553.507 56.2636 554.553 52.7812C555.643 49.2715 557.248 46.0717 559.384 43.1363C561.568 40.1163 564.276 37.6237 567.479 35.6429C570.673 33.6633 574.412 32.6944 578.736 32.6944C583.043 32.6944 586.798 33.636 589.988 35.5335C593.262 37.3463 595.975 39.7282 598.078 42.6584C600.277 45.5039 601.887 48.7167 602.907 52.2876C604.017 55.8052 604.553 59.1625 604.553 62.404C604.553 65.2651 604.16 68.6147 603.388 72.45C602.608 76.1615 601.196 79.7351 599.141 83.1615C597.182 86.5501 594.531 89.4412 591.168 91.8244C587.895 94.0969 583.755 95.2508 578.736 95.2508H429.238V105.258C429.238 107.404 428.951 109.564 428.442 111.711C427.937 113.934 427.058 115.933 425.812 117.686C422.921 122.068 418.744 123.624 413.639 123.624C411.072 123.624 409.578 123.335 407.894 122.732C406.51 122.305 405.504 121.895 404.9 121.593L408.662 115.228C408.997 115.519 409.49 115.852 410.085 116.253C411.032 116.792 412.044 117.077 413.155 117.077C414.592 117.077 415.647 116.157 416.347 114.508C417.031 112.97 417.381 111.233 417.381 109.301V45.8907H410.69V39.3284H429.238V88.6963H453.857V45.8907H447.82V39.3284H465.775V47.5668L508.215 47.5394C521.245 47.5394 531.833 58.2301 531.833 71.4133ZM465.775 88.6963H501.619C510.86 88.6963 518.339 80.5321 518.339 71.6894C518.339 62.7973 510.833 55.688 501.619 55.688H465.775V88.6963ZM590.934 55.3989C590.619 52.8021 589.988 50.3693 589.017 48.1059C588.03 45.7383 586.727 43.7719 585.016 42.2234C583.372 40.5434 581.274 39.7282 578.736 39.7282C576.274 39.7282 574.221 40.5187 572.563 42.0906C569.07 45.4609 567.371 50.4462 566.631 55.1423C566.246 57.7313 566.043 60.1145 566.043 62.2894C566.043 64.614 566.199 67.272 566.521 70.2634C566.906 73.2418 567.55 76.073 568.426 78.7388C569.4 81.3434 570.686 83.586 572.296 85.4613C573.96 87.3106 576.103 88.2027 578.736 88.2027C581.339 88.2027 583.501 87.351 585.125 85.5929C586.838 83.8608 588.134 81.7016 589.017 79.1126C589.988 76.508 590.619 73.7249 590.934 70.7492C591.332 67.6887 591.535 64.8705 591.535 62.2894C591.535 60.2643 591.332 57.9748 590.934 55.3989ZM383.289 73.359L382.665 73.2418C382.454 73.7939 381.96 74.5845 381.153 75.6354C379.427 77.9223 377.16 79.7755 374.588 80.941C373.206 81.6807 371.767 82.048 370.259 82.048C366.437 82.048 363.192 81.0778 360.419 79.1686C357.698 77.2425 355.467 74.8058 353.705 71.8431C351.943 68.8647 350.627 65.5555 349.737 61.9C348.916 58.2418 348.513 54.6969 348.513 51.2784C348.513 48.5435 349.054 45.5651 350.169 42.368C351.354 39.1044 353.025 36.0882 355.24 33.33C357.436 30.5118 360.164 28.1871 363.395 26.3235C366.684 24.4 370.423 23.4363 374.618 23.4363C376.165 23.4363 377.995 23.5809 380.139 23.8739C382.288 24.107 384.415 24.4 386.501 24.7738C388.552 25.0772 390.398 25.4223 392.048 25.7961L395.126 26.5189V95.2508H311.086V88.6963H317.12V45.8907H311.086V39.3284H329.065V88.6963H383.289V73.359ZM383.289 64.9747V31.2957C382.713 31.1564 382.165 31.0822 381.575 31.0027L379.248 30.556C378.41 30.4102 377.59 30.2904 376.775 30.2226C375.932 30.0651 375.22 29.9856 374.618 29.9856C372.371 29.9856 370.357 30.7696 368.588 32.3259C366.93 33.8522 365.494 35.7262 364.293 37.9219C363.179 40.0603 362.273 42.3367 361.589 44.7564C360.987 47.1774 360.691 49.3522 360.691 51.2784C360.691 53.3972 360.916 55.8208 361.357 58.5348C362.17 63.2713 363.971 68.6576 367.136 72.3536C368.664 74.0427 370.494 74.9309 372.603 74.9309C373.871 74.9309 375.083 74.5284 376.234 73.7523C377.439 73.0047 378.551 72.1049 379.534 71.1073C380.851 69.6682 382.852 66.9334 383.289 64.9747ZM375.315 0C379.547 0 382.952 3.36256 382.952 7.48306C382.952 11.5957 379.547 14.9401 375.315 14.9401C371.07 14.9401 367.671 11.5957 367.671 7.48306C367.671 3.36256 371.07 0 375.315 0Z" fill="#A0A0A0"/>
<path fill-rule="evenodd" clip-rule="evenodd" d="M271.594 369.4H332.39V308.626H271.594V369.4ZM225 339.018C225 296.499 259.459 262 302.002 262C344.535 262 379 296.499 379 339.018C379 381.535 344.535 416 302.002 416C259.459 416 225 381.535 225 339.018ZM238.985 339.018C238.985 373.807 267.193 402.005 302.002 402.005C336.805 402.005 365.024 373.807 365.024 339.018C365.024 304.211 336.805 275.995 302.002 275.995C267.193 275.995 238.985 304.211 238.985 339.018Z" fill="#A0A0A0"/>
</svg>
