<svg width="720" height="206" viewBox="0 0 720 206" fill="none" xmlns="http://www.w3.org/2000/svg">
<g clip-path="url(#clip0_212_19)">
<path fill-rule="evenodd" clip-rule="evenodd" d="M0 48.7277C0.086849 18.4434 26.0304 0.0288242 103.268 0L103.628 0.000144121C180.994 0.0289683 206.898 18.5045 206.898 48.8794C206.898 133.163 131.125 206 103.448 206C75.7868 206 0.0888755 133.247 0 49.027V48.7277ZM35.178 69.5868C30.3441 75.4106 34.7987 82.2586 39.9228 87.8207L103.058 156.504C103.058 156.504 143.188 112.972 165.59 88.6853C166.023 88.216 166.446 87.7604 166.859 87.3165C173.061 80.6474 176.788 76.64 170.67 69.2793L157.094 52.9473L123.814 44.4395H82.3121L49.0196 52.9473C46.3893 56.1079 44.1492 58.8014 41.8975 61.509C39.7794 64.0558 37.651 66.6149 35.178 69.5868ZM159.137 86.1261C159.137 86.1261 150.291 87.991 145.772 88.9695C140.575 90.1011 137.775 88.6034 136.281 85.4744C134.841 82.468 130.386 73.5215 130.386 73.5215C130.386 73.5215 131.605 82.6836 131.861 85.7524C131.87 85.8663 131.88 85.9815 131.891 86.0977C132.091 88.3002 132.328 90.909 125.888 93.4658C121.109 95.3575 108.547 99.4803 108.547 99.4803C108.547 99.4803 118.005 98.3006 120.481 98.0341C129.764 97.0289 129.018 101.741 127.109 105.425C123.06 113.225 108.837 139.494 108.837 139.494C111.299 136.012 113.727 132.362 116.185 128.665C127.606 111.492 139.705 93.2997 159.137 86.1261ZM98.0591 139.494C98.0591 139.494 83.8362 113.225 79.788 105.425C77.8756 101.741 77.1307 97.029 86.415 98.0342C88.8944 98.3007 98.346 99.4805 98.346 99.4805C98.346 99.4805 85.7872 95.3576 81.0066 93.4659C74.5667 90.9095 74.8047 88.301 75.0056 86.0988C75.0162 85.9822 75.0267 85.8668 75.0362 85.7525C75.2892 82.6838 76.5106 73.5216 76.5106 73.5216C76.5106 73.5216 72.0532 82.4682 70.6154 85.4745C69.1215 88.6036 66.3189 90.1013 61.1241 88.9696C56.6034 87.9912 47.7599 86.1263 47.7599 86.1263C67.1899 93.3001 79.2904 111.494 90.7122 128.667C93.1705 132.363 95.5974 136.012 98.0591 139.494ZM81.8072 67.163L95.8474 70.5353C98.5047 71.1724 100.502 73.3527 100.901 76.0459L103.451 88.5623L105.993 76.0459C106.394 73.3527 108.392 71.1724 111.052 70.5353L125.09 67.163H81.8072ZM131.111 65.4407L144.743 63.1609C146.906 62.7977 149.105 63.5097 150.643 65.0679L160.959 75.5492C159.633 73.1514 156.658 68.4203 154.438 64.9347C152.828 62.403 153.113 59.1228 155.132 56.8965L156.268 55.6421L131.111 65.4407ZM75.7831 65.4407L62.1513 63.1609C59.9906 62.7977 57.7912 63.5097 56.2533 65.0679L45.938 75.5492C47.2616 73.1514 50.2367 68.4203 52.458 64.9347C54.0711 62.403 53.7816 59.1228 51.7622 56.8965L50.6264 55.6421L75.7831 65.4407Z" fill="#A0A0A0"/>
<path d="M676.051 84.5459V84.5871C676.051 85.4834 675.329 86.2153 674.428 86.2153H674.356H661.427H661.419C660.526 86.2153 659.789 85.4834 659.789 84.5871V42.1631C659.789 39.3265 659.475 37.4472 658.904 36.5167C658.454 35.7875 657.571 35.3466 656.167 35.1914C655.047 35.0657 653.814 35.2594 652.748 34.8207C651.989 34.513 651.461 33.7943 651.415 32.9317C651.371 32.1321 651.865 31.2985 652.607 30.9038C652.948 30.7268 653.361 30.6643 653.775 30.63C657.025 30.1727 668.193 28.1691 673.552 27.0427C674.691 26.8004 675.857 26.9069 675.971 28.1737C676.127 32.4736 678.122 33.6099 683.652 30.0078C685.878 28.5953 687.973 27.7741 689.749 27.1636C691.533 26.5463 693.437 26.2435 695.484 26.2435C700.992 26.2435 705.237 27.847 708.213 31.0811C711.191 34.3125 712.682 38.5782 712.682 43.8833V73.0565C712.682 76.9665 713.076 81.6394 717.745 81.8838H717.833C717.938 81.8838 718.045 81.8838 718.159 81.903L718.246 81.9125L718.234 81.9201C719.244 82.1019 720 82.9205 720 84.0371C720 85.1686 719.025 86.2754 717.833 86.2152L717.656 86.1957H704.868C704.727 86.2152 704.588 86.2152 704.435 86.2152C700.024 86.2152 696.416 82.6149 696.416 78.1844V47.2018C696.416 43.4903 695.598 40.741 693.949 38.9728C692.304 37.2094 690.112 36.323 687.351 36.323C685.056 36.323 682.72 36.9795 680.319 38.324C677.382 39.9149 676.103 42.7763 676.052 45.2614V84.5457L676.051 84.5459ZM645.379 41.8315V71.4889C645.379 74.1395 645.717 76.0649 646.391 77.2569C646.943 78.2795 647.658 78.8555 648.502 79.0156C649.87 79.2338 650.919 80.4207 650.919 81.8426C650.919 82.9063 650.34 83.8359 649.473 84.3181V84.3282C647.04 85.7333 644.138 86.7894 641.121 86.8134C638.379 86.8134 636.068 86.1666 634.226 84.9436C632.121 83.555 631.083 81.1478 628.163 81.1478C625.623 81.1478 623.922 83.2648 622.015 84.5921C620.012 85.9777 618.012 86.8134 614.803 86.8134C609.93 86.8134 605.938 85.118 602.782 81.7121C599.646 78.3035 598.067 74.5632 598.067 70.4959C598.067 63.8654 601.493 59.1763 608.334 56.4287C612.154 54.9346 615.988 53.4084 619.801 51.7878C622.635 50.5764 624.944 49.5347 626.725 48.6387L626.742 48.6291C628.462 47.8463 629.661 46.1166 629.661 44.1156V43.9219V42.2364C629.661 36.1949 627.839 31.0834 622.562 30.8802C613.171 30.5188 612.385 38.5908 611.22 44.5984C610.779 46.8296 608.874 48.0743 606.869 48.0743C605.356 48.0743 603.758 47.5051 602.076 46.3541C600.018 44.9397 600.018 43.4305 600.018 41.8318C600.018 32.4251 610.325 25.0833 622.589 25.2502C636.659 25.437 645.379 28.7482 645.379 41.8318V41.8315ZM629.661 67.0297L629.645 56.9548L629.655 56.8915V56.8311C629.655 55.4187 628.508 54.2829 627.097 54.2829C626.594 54.2829 626.124 54.4256 625.737 54.6702L620.718 57.4974C615.967 60.1863 613.48 64.4884 613.565 68.9599C613.663 73.3788 617.181 76.9782 621.584 76.9782C625.041 76.9782 627.997 74.8076 629.144 71.7582C629.734 70.1884 629.661 68.6696 629.661 67.0298V67.0297ZM555.437 38.554C555.461 38.6797 555.471 38.1662 555.471 38.9489C555.471 39.7243 555.188 41.1195 553.629 41.3639C552.067 41.6133 551.06 40.6808 550.7 39.6898C548.846 34.6999 544.975 30.8167 538.958 30.8167C536.835 30.8167 533.518 31.5748 532.007 33.0764C530.502 34.579 529.752 36.3493 529.752 38.3798C529.752 40.2425 530.616 41.9888 532.343 43.6314C538.068 49.0333 548.14 48.9875 554.432 54.8372C557.889 58.0282 559.629 62.1367 559.629 67.1774C559.629 73.4535 556.962 78.4173 551.626 82.0363C546.914 85.2244 541.359 86.8134 534.964 86.8134C531.321 86.8134 527.927 86.2881 524.774 85.2245C521.928 84.2652 519.76 83.1336 518.246 81.8158V81.809C517.937 81.5447 517.695 81.1939 517.57 80.7893C517.19 79.5342 516.784 77.2956 516.378 74.0792C516.152 72.3467 515.981 70.7701 515.86 69.3479C515.843 69.0281 515.814 68.7204 515.848 68.3984C516.025 67.1776 517.093 66.2305 518.354 66.2305C519.429 66.2305 520.366 66.8965 520.735 67.834C523.913 76.1792 528.164 80.9371 536.703 81.2448C539.192 81.3338 541.211 80.4743 542.761 78.9189C544.321 77.3732 545.099 75.3626 545.099 72.8872C545.099 70.6732 544.294 68.6793 542.701 66.9131C541.102 65.1401 538.515 63.551 534.964 62.1366C526.884 59.0356 516.582 52.6597 516.509 42.7518C516.451 33.0842 524.115 27.9657 532.664 26.093C539.197 24.6635 545.839 25.6744 552.058 28.1765C552.179 28.2293 552.306 28.2802 552.42 28.3433C552.695 28.4842 552.931 28.7191 553.08 28.993C553.206 29.2032 553.291 29.4846 553.364 29.7023C553.717 30.7584 554.147 32.2944 554.622 34.3052C555.138 36.4364 555.074 36.4824 555.447 38.554H555.437H555.437ZM587.449 9.68373C587.449 15.0296 583.102 19.3636 577.73 19.3636C572.358 19.3636 568.008 15.0295 568.008 9.68373C568.008 4.33714 572.358 0.000976562 577.73 0.000976562C583.102 0.000976562 587.449 4.33714 587.449 9.68373ZM592.201 86.2174C593.663 86.2174 594.551 85.1687 594.551 84.0447C594.551 82.9225 593.679 82.0505 592.296 81.8741C587.651 81.2905 587.241 76.9665 587.241 73.0662C587.241 73.0662 587.236 39.4551 587.236 27.9003C587.236 26.6479 585.946 26.5387 584.807 26.776C581.35 27.6262 577.674 28.2587 574.188 29.0072C571.743 29.5325 569.151 29.937 566.427 30.3489C565.845 30.4389 565.032 30.482 564.475 30.7368C563.694 31.1048 563.144 31.9233 563.144 32.7543C563.135 33.6339 563.648 34.4065 564.4 34.7697C565.14 35.1117 566.656 35.2326 567.511 35.4528C571.489 36.4533 570.986 40.1715 570.986 43.7424V77.642C570.986 82.2715 574.572 86.2152 578.988 86.2152C579.127 86.2152 589.005 86.2172 592.201 86.2172L592.201 86.2174ZM315.006 0.000976562C320.449 0.000976562 322.407 0.0661192 323.879 0.543447C324.973 0.899858 325.884 1.74037 326.002 3.06282C326.329 6.7379 326.881 15.0446 326.881 15.0446C327.229 18.46 325.38 18.7507 324.222 18.7507C323.149 18.7507 321.986 17.9685 321.526 16.3307C320.602 13.0533 318.925 10.7205 317.594 9.37128C315.643 7.37521 310.838 5.06653 303.208 5.06653H296.077C293.695 5.06653 292.569 6.82222 292.569 9.70492V31.1148C292.569 32.1538 292.579 33.8134 292.878 34.8138C293.364 36.4124 294.668 37.6868 296.326 38.125C297.202 38.3551 298.155 38.2851 299.051 38.2851H302.573C308.252 38.2851 310.58 37.774 311.782 36.7662C312.743 35.9449 313.546 33.7167 314.189 30.0732C314.256 29.6688 314.312 29.1938 314.456 28.8064C314.823 27.8422 315.76 27.1444 316.855 27.1444C317.991 27.1444 319.298 27.8517 319.298 29.3075L319.288 53.5224C319.288 54.7531 318.22 55.6952 316.879 55.6952C315.874 55.6952 315.001 55.1191 314.578 54.2901C314.348 53.8272 314.302 53.2895 314.222 52.7809C313.614 49.2857 312.804 47.0883 311.782 46.2142C310.493 45.1066 308.171 44.5516 302.573 44.5516H298.753C294.839 44.5516 292.59 47.1609 292.569 52.2144C292.554 55.5914 292.585 63.2314 292.569 66.9036C292.544 71.9471 292.7 74.1638 293.102 75.8887C293.498 77.6087 294.399 78.8758 295.834 79.5323C296.882 80.0141 298.218 80.2683 299.768 80.4014C301.31 80.5327 303.79 80.6728 307.159 80.5951C317.658 80.3381 322.866 77.9232 327.078 67.1121C327.54 66.1023 327.991 64.2804 330.192 64.2852C331.737 64.2852 333.029 65.4114 332.404 68.728C332.063 70.5375 329.749 82.2039 329.163 84.1685C328.827 85.3188 327.798 86.2177 326.154 86.2177C320.086 86.2107 274.553 86.2177 267.409 86.2177C266.042 86.2177 264.831 85.5083 264.831 84.0545C264.831 82.7752 265.587 81.8744 267.409 81.8744C270.137 81.8744 272.125 79.5656 273.141 78.2136C274.431 76.4943 275.222 71.9885 275.222 64.7406V20.8437C275.268 13.6756 274.772 9.21361 273.623 7.44813C272.723 6.07207 271.419 4.2743 267.371 4.2743C265.916 4.2743 264.831 3.32945 264.831 2.13541C264.831 0.446886 266.334 0.00112068 267.319 0.00112068H315.006L315.006 0.000976562ZM419.416 86.2174C415.003 86.2174 411.415 82.4797 411.415 77.6442V43.7454C411.415 40.1718 411.913 36.4582 407.94 35.453C407.083 35.2352 405.558 35.114 404.828 34.7698C404.067 34.4094 403.563 33.6484 403.563 32.7592C403.575 31.9236 404.12 31.1071 404.906 30.7487C405.461 30.4948 406.269 30.4391 406.86 30.3538C409.585 29.9372 421.774 27.6285 425.238 26.7858C426.377 26.5339 427.543 26.6547 427.655 27.9147C427.681 29.2182 427.716 31.1874 427.735 32.0739C427.786 33.8763 429.409 34.3921 430.893 33.0257C431.509 32.4323 432.496 31.519 432.895 31.1531C434.771 29.5423 436.618 28.3507 438.776 27.2632C440.045 26.6113 441.425 26.2236 442.992 26.2236C445.578 26.2236 447.702 27.0229 449.398 28.6124C451.079 30.211 451.928 32.1076 451.928 34.3223C451.928 36.4467 451.303 38.3894 450.057 40.1526C448.817 41.9283 447.35 43.1225 445.659 43.7454C444.948 44.009 444.374 44.1401 443.931 44.1401C443.133 44.1401 442.335 43.8346 441.528 43.2194C439.216 41.3592 437.005 40.4266 434.868 40.4266C433.355 40.4266 432.046 40.8455 430.934 41.6839C427.939 43.9561 427.674 47.2863 427.674 50.6394V73.0662C427.674 76.9782 428.022 81.2972 432.728 81.8885C434.414 82.0995 434.973 82.9226 434.973 84.0468C434.973 85.1687 434.014 86.2174 432.806 86.2174H419.416H419.416ZM378.404 30.7996C378.404 30.3664 378.365 29.7366 378.552 29.3218C378.703 28.9827 378.995 28.6996 379.363 28.5444C379.793 28.3508 380.486 28.3555 380.951 28.3049C381.472 28.2416 382.002 28.1831 382.547 28.1104C385.907 27.6991 388.661 27.3456 390.788 27.0592C391.43 26.9795 392.408 26.7687 393.082 26.7687C393.748 26.7687 394.323 27.1734 394.568 27.7617C394.736 28.1566 394.714 28.6028 394.714 29.034V74.2891C394.834 77.8817 395.583 81.6557 399.772 81.8741H399.855C399.967 81.8741 400.081 81.8741 400.188 81.896H400.276L400.269 81.9125C401.274 82.102 402.035 82.913 402.035 84.0372C402.035 85.1592 401.069 86.2077 399.855 86.2077L386.895 86.1959C386.756 86.1959 386.612 86.2077 386.464 86.2077C384.392 86.2077 382.498 85.4161 381.07 84.1079C379.745 83.0614 379.116 81.3481 378.112 80.9781C376.903 80.5324 375 81.1305 372.146 82.9811C369.92 84.3984 366.521 85.8035 364.747 86.4089C362.979 87.0319 361.059 87.3393 359.016 87.3393C353.512 87.3393 349.271 85.7333 346.296 82.4969C343.313 79.2751 341.795 74.9991 341.795 69.6966V39.5278C341.795 37.1389 341.505 35.5691 341.024 34.8207C340.537 34.0674 339.401 33.5634 337.617 33.2949C336.929 33.1884 335.982 33.1424 335.323 32.8349C334.593 32.4861 334.097 31.7472 334.097 30.875C334.106 30.0702 334.644 29.2709 335.403 28.92C335.951 28.6655 336.683 28.7162 337.272 28.6921C339.819 28.5686 342.705 28.3846 345.882 27.9898C349.232 27.5755 351.996 27.2144 354.12 26.9261C354.765 26.8484 355.743 26.6357 356.412 26.6357C357.084 26.6357 357.658 27.0428 357.904 27.6188C358.081 28.0234 358.057 28.4813 358.057 28.903V66.3752C358.057 70.0915 358.909 72.8382 360.56 74.6043C362.2 76.3677 364.397 77.2569 367.149 77.2569C369.44 77.2569 371.789 76.591 374.187 75.2656C377.124 73.6672 378.404 70.7941 378.455 68.3062C378.404 55.8138 378.374 43.2972 378.404 30.7996H378.404ZM503.227 41.8316V71.4891C503.227 74.1396 503.561 76.0651 504.232 77.2571C504.789 78.2796 505.502 78.8557 506.354 79.0158C507.716 79.234 508.767 80.4208 508.767 81.8427C508.767 82.9065 508.183 83.8361 507.322 84.3183V84.3284C504.886 85.7334 501.984 86.7895 498.967 86.8136C496.22 86.8136 493.914 86.1668 492.067 84.9438C489.973 83.5552 488.929 81.1479 486.009 81.1479C483.469 81.1479 481.766 83.2649 479.861 84.5923C477.859 85.9778 475.856 86.8136 472.645 86.8136C467.779 86.8136 463.779 85.1182 460.623 81.7123C457.495 78.3037 455.914 74.5633 455.914 70.4961C455.914 63.8655 459.337 59.1764 466.181 56.4289C470 54.9348 473.837 53.4085 477.652 51.7879C480.479 50.5766 482.791 49.5349 484.574 48.6389L484.591 48.6292C486.313 47.8465 487.51 46.1168 487.51 44.1158V43.9221V42.2366C487.51 36.195 485.683 31.0835 480.411 30.8803C471.015 30.519 470.232 38.5909 469.066 44.5986C468.625 46.8297 466.721 48.0745 464.718 48.0745C463.2 48.0745 461.604 47.5052 459.918 46.3543C457.865 44.9399 457.865 43.4306 457.865 41.8319C457.865 32.4253 468.166 25.0835 480.435 25.2504C494.505 25.4371 503.227 28.7483 503.227 41.8319L503.227 41.8316ZM487.511 67.0298L487.493 56.9549L487.501 56.8917V56.8313C487.501 55.4189 486.358 54.2831 484.944 54.2831C484.442 54.2831 483.973 54.4258 483.588 54.6703L478.564 57.4975C473.81 60.1864 471.321 64.4886 471.412 68.9601C471.509 73.3789 475.029 76.9784 479.43 76.9784C482.888 76.9784 485.844 74.8077 486.99 71.7583C487.581 70.1885 487.51 68.6698 487.51 67.03L487.511 67.0298ZM472.733 136.122C472.733 132.58 473.224 128.903 469.29 127.91C468.446 127.687 466.937 127.573 466.205 127.232C465.453 126.873 464.955 126.106 464.964 125.238C464.964 124.414 465.509 123.603 466.285 123.244C466.83 122.992 467.633 122.946 468.212 122.859C470.917 122.447 483.148 120.153 486.569 119.32C487.7 119.073 488.855 119.189 488.97 120.434C489.262 136.74 489.067 154.069 488.98 170.421C489.014 172.301 489.72 172.936 490.454 173.197C491.403 173.521 492.542 173.013 493.805 171.283C497.695 166.153 501.576 161.027 505.466 155.894C506.763 154.283 508.032 151.473 504.777 150.821C502.205 150.305 502.272 146.291 505.261 146.291H520.935C523.188 146.291 523.927 147.343 523.927 148.59C523.927 151.836 520.307 149.821 514.461 156.311L505.473 165.581C502.79 168.236 501.726 170.004 504.347 173.117C508.403 178.703 515.935 188.754 517.638 190.823C521.458 195.459 525.577 200.972 529.864 201.113H529.942C530.048 201.113 530.155 201.12 530.26 201.132L530.348 201.142V201.15C531.316 201.338 532.058 202.143 532.058 203.257C532.058 204.371 531.144 205.388 529.959 205.388H514.468C510.675 205.388 508.736 203.257 506.824 200.551L492.427 180.215C491.252 178.265 488.937 178.766 488.914 181.319C488.883 188.803 488.849 196.276 488.849 203.744V203.792C488.849 204.671 488.134 205.401 487.233 205.401L487.18 205.391V205.401H474.365H474.343C473.465 205.401 472.743 204.681 472.743 203.792L472.75 203.744H472.743C472.743 181.535 472.733 158.341 472.733 136.122L472.733 136.122ZM421.007 203.729V203.771C421.007 204.667 420.285 205.398 419.385 205.398H419.314H406.385H406.375C405.485 205.398 404.741 204.667 404.741 203.771V161.349C404.741 158.51 404.434 156.633 403.865 155.7C403.412 154.973 402.531 154.535 401.125 154.375C400.007 154.251 398.773 154.448 397.707 154.009C396.946 153.701 396.418 152.98 396.371 152.119C396.33 151.32 396.824 150.487 397.564 150.092C397.909 149.915 398.325 149.852 398.739 149.818C401.984 149.36 413.152 147.357 418.511 146.225C419.655 145.984 420.816 146.09 420.93 147.359C421.09 151.662 423.083 152.793 428.613 149.195C430.831 147.779 432.937 146.962 434.708 146.349C436.489 145.734 438.391 145.426 440.44 145.426C445.953 145.426 450.196 147.032 453.166 150.264C456.15 153.495 457.631 157.764 457.631 163.072C457.631 169.489 457.648 192.242 457.648 192.242C457.648 196.152 458.038 200.822 462.701 201.069H462.791C462.896 201.069 463.003 201.069 463.115 201.086L463.205 201.096L463.198 201.103C464.202 201.29 464.96 202.106 464.96 203.22C464.96 204.351 463.979 205.461 462.791 205.398L462.614 205.381H449.824C449.685 205.398 449.542 205.398 449.393 205.398C444.985 205.398 441.379 201.798 441.379 197.373V166.39C441.379 162.674 440.554 159.926 438.907 158.161C437.267 156.395 435.071 155.506 432.306 155.506C430.017 155.506 427.677 156.167 425.278 157.509C422.341 159.098 421.063 161.962 421.008 164.449V203.729L421.007 203.729ZM300.826 156.506C303.991 155.906 306.658 154.787 308.651 153.149C311.772 150.581 313.317 146.04 313.317 140.536C313.317 134.85 311.719 130.683 308.517 128.024C306.624 126.437 304.055 125.105 301.03 124.523C299.255 124.199 297.442 124.199 295.641 124.336C292.595 124.579 292.686 125.989 292.686 128.922V150.02C292.686 151.054 292.578 152.224 292.888 153.229C293.374 154.833 294.68 156.11 296.34 156.553C297.722 156.911 299.415 156.758 300.826 156.507L300.826 156.506ZM301.702 199.769C305.765 199.577 309.276 198.245 311.986 195.796C315.531 192.599 317.321 187.812 317.321 181.419C317.321 174.85 315.31 170.443 311.254 167.269C308.828 165.373 305.723 164.016 302.281 163.248C300.464 162.844 297.809 162.604 296.057 163.197C294.522 163.716 293.318 164.968 292.87 166.535C292.625 167.391 292.685 168.284 292.685 169.161L292.508 185.132C292.447 190.183 292.714 193.611 293.111 195.328C293.505 197.056 294.396 198.332 295.841 198.996C297.67 199.842 299.724 199.861 301.702 199.769V199.769ZM301.921 119.191C311.517 119.191 318.628 120.517 323.443 123.494C326.09 125.134 328.09 127.115 329.38 129.558C330.669 131.996 331.311 135.037 331.311 138.678C331.311 143.999 329.185 148.45 324.915 151.989C322.56 153.931 319.967 155.802 317.064 156.928C316.589 157.117 316.237 157.369 316.237 157.892C316.237 158.667 316.959 158.842 317.562 158.985C322.334 160.155 326.334 162.035 329.447 164.644C334.078 168.52 336.374 173.691 336.374 180.092C336.374 184.701 335.36 188.657 333.314 191.937C331.265 195.225 328.382 197.971 324.642 200.192C321.451 202.051 317.672 203.41 313.317 204.255C310.106 204.873 306.084 205.401 297.437 205.401C288.464 205.398 268.168 205.398 267.397 205.393C266.572 205.391 264.84 205.076 264.828 203.346C264.823 201.869 265.972 201.191 267.085 201.086C273.823 200.454 275.231 193.684 275.231 185.559V140.114C275.231 132.924 274.769 128.421 273.625 126.65C272.725 125.274 271.628 123.962 268.514 123.51C267.297 123.334 264.84 123.164 264.84 121.171C264.84 119.161 266.891 119.191 267.388 119.191C273.319 119.191 287.233 119.175 296.284 119.191H301.921ZM390.095 160.833V190.49C390.095 193.141 390.428 195.066 391.099 196.259C391.657 197.281 392.37 197.857 393.222 198.017C394.584 198.235 395.635 199.422 395.635 200.844C395.635 201.908 395.051 202.837 394.19 203.32V203.33C391.754 204.735 388.852 205.791 385.834 205.815C383.088 205.815 380.781 205.168 378.934 203.945C376.84 202.557 375.796 200.149 372.876 200.149C370.337 200.149 368.634 202.266 366.729 203.594C364.726 204.979 362.724 205.815 359.512 205.815C354.647 205.815 350.647 204.12 347.491 200.714C344.362 197.305 342.781 193.565 342.781 189.497C342.781 182.867 346.204 178.178 353.048 175.43C356.867 173.936 360.705 172.41 364.519 170.789C367.347 169.578 369.658 168.536 371.441 167.64L371.459 167.631C373.181 166.848 374.378 165.118 374.378 163.117V162.924V161.238C374.378 155.196 372.551 150.085 367.279 149.882C357.883 149.52 357.099 157.592 355.934 163.6C355.493 165.831 353.588 167.076 351.586 167.076C350.067 167.076 348.472 166.507 346.785 165.356C344.732 163.941 344.732 162.432 344.732 160.833C344.732 151.427 355.034 144.085 367.303 144.252C381.372 144.438 390.095 147.75 390.095 160.833L390.095 160.833ZM374.378 186.031L374.361 175.956L374.368 175.893V175.833C374.368 174.42 373.225 173.284 371.811 173.284C371.31 173.284 370.841 173.427 370.456 173.672L365.432 176.499C360.678 179.188 358.189 183.49 358.279 187.961C358.376 192.38 361.896 195.98 366.298 195.98C369.755 195.98 372.711 193.809 373.857 190.76C374.448 189.19 374.378 187.671 374.378 186.031L374.378 186.031ZM389.879 160.833V190.49C389.879 193.141 390.213 195.066 390.884 196.259C391.442 197.281 392.155 197.857 393.007 198.017C394.369 198.235 395.42 199.422 395.42 200.844C395.42 201.908 394.835 202.837 393.975 203.32V203.33C391.539 204.735 388.637 205.791 385.619 205.815C382.873 205.815 380.566 205.168 378.719 203.945C376.625 202.557 375.581 200.149 372.661 200.149C370.121 200.149 368.418 202.266 366.514 203.594C364.511 204.979 362.509 205.815 359.297 205.815C354.432 205.815 350.432 204.12 347.276 200.714C344.147 197.305 342.566 193.565 342.566 189.497C342.566 182.867 345.989 178.178 352.833 175.43C356.652 173.936 360.49 172.41 364.304 170.789C367.132 169.578 369.443 168.536 371.226 167.64L371.244 167.631C372.965 166.848 374.163 165.118 374.163 163.117V162.924V161.238C374.163 155.196 372.336 150.085 367.063 149.882C357.668 149.52 356.884 157.592 355.719 163.6C355.278 165.831 353.373 167.076 351.371 167.076C349.852 167.076 348.256 166.507 346.57 165.356C344.517 163.941 344.517 162.432 344.517 160.833C344.517 151.427 354.818 144.085 367.087 144.252C381.157 144.438 389.879 147.75 389.879 160.833L389.879 160.833ZM374.163 186.031L374.146 175.956L374.153 175.893V175.833C374.153 174.42 373.01 173.284 371.596 173.284C371.095 173.284 370.626 173.427 370.241 173.672L365.216 176.499C360.463 179.188 357.974 183.49 358.064 187.961C358.161 192.38 361.681 195.98 366.083 195.98C369.54 195.98 372.496 193.809 373.642 190.76C374.233 189.19 374.163 187.671 374.163 186.031L374.163 186.031Z" fill="#A0A0A0"/>
</g>
<defs>
<clipPath id="clip0_212_19">
<rect width="720" height="206" fill="white"/>
</clipPath>
</defs>
</svg>
