<svg width="53" height="64" viewBox="0 0 53 64" fill="none" xmlns="http://www.w3.org/2000/svg">
<path d="M52.0542 8.01251C52.0542 12.4377 48.4987 16.025 44.113 16.025C39.7272 16.025 36.1719 12.4377 36.1719 8.01251C36.1719 3.58732 39.7272 0 44.113 0C48.4987 0 52.0542 3.58732 52.0542 8.01251Z" fill="white"/>
<path d="M51.475 55.6988C51.475 60.1453 47.9022 63.7502 43.4953 63.7502C39.0883 63.7502 35.5156 60.1453 35.5156 55.6988C35.5156 51.2522 39.0883 47.6475 43.4953 47.6475C47.9022 47.6475 51.475 51.2522 51.475 55.6988Z" fill="#F8B833"/>
<path d="M18.3643 39.6456C12.987 38.2544 10.4119 38.3974 7.16187 39.8875C0.236062 43.0618 -2.12556 51.841 2.11797 58.3113C6.764 65.3958 18.0327 65.2941 22.7352 58.1241C24.1528 55.9624 24.5265 54.487 24.8687 49.6931C24.8951 49.324 24.8133 47.7016 24.8388 47.3749C24.7681 46.9603 24.8388 47.8098 24.8388 47.3749C24.8388 43.2505 28.1526 39.907 32.2402 39.907C33.5866 39.907 35.093 40.6654 35.9369 40.9035C37.4045 41.3178 38.9609 41.5418 40.1621 41.6838C40.6067 41.7433 41.0599 41.774 41.5205 41.774C47.1731 41.774 51.7554 37.1505 51.7554 31.4471C51.7554 25.7438 47.1731 21.1204 41.5205 21.1204C40.2438 21.1204 39.0218 21.3561 37.8949 21.787C37.6413 21.8296 37.3466 21.9476 37.0483 22.067C36.7681 22.1791 36.485 22.2925 36.2302 22.3456C34.3551 22.7363 33.3965 22.7949 32.5011 22.5545C30.1887 22.1656 28.1626 20.9221 26.7531 19.1565C25.6587 17.9534 25.0634 16.2944 24.6847 13.2318C24.6847 6.40061 19.3119 0.233398 12.5416 0.233398C5.77139 0.233398 0.252258 5.77269 0.252258 12.6038C0.209216 19.9781 5.72413 25.0314 12.5223 24.9979C14.2275 24.9894 16.0429 24.3798 17.8421 23.6875C19.0489 23.0711 20.9358 22.4623 22.3808 22.4623C27.2988 22.4623 31.2976 26.4849 31.2976 31.4471C31.2882 33.3484 30.6046 35.6386 29.3275 37.0781C29.1327 37.3218 28.9256 37.5549 28.707 37.7766C27.0908 39.4165 24.8518 40.432 22.3808 40.432C21.3126 40.432 20.2884 40.2423 19.3393 39.8945C19.0395 39.8195 18.7158 39.7366 18.3643 39.6456Z" fill="white"/>
</svg>
