<svg width="300" height="206" viewBox="0 0 300 206" fill="none" xmlns="http://www.w3.org/2000/svg">
<path fill-rule="evenodd" clip-rule="evenodd" d="M135.841 0.294755C119.402 1.58236 103.234 7.22178 90.4867 16.1153C85.892 19.3204 78.8681 26.0876 75.6053 30.4526C62.2438 48.3259 61.6615 68.3578 73.981 86.3079C77.642 91.6425 86.2832 99.9137 86.2832 98.0837C86.2832 97.9428 84.785 96.3318 82.9535 94.5035C76.9301 88.49 73.0482 81.9305 70.9394 74.1995C69.9584 70.6035 69.7482 68.8923 69.7288 64.328C69.7 57.4986 70.427 54.4463 73.6872 47.7079C82.3553 29.7931 103.748 16.6874 132.522 11.6641C137.681 10.7639 139.667 10.6619 151.77 10.6773C162.5 10.6915 166.308 10.8571 170.354 11.4879C190.524 14.6307 201.984 19.4552 211.335 28.741C218.49 35.8456 221.842 42.7867 223.295 53.5059C225.136 67.0892 220.369 79.8177 209.312 90.8465C196.21 103.914 177.1 111.144 152.655 112.283C119.063 113.847 96.1699 94.7045 102.483 70.3296C104.058 64.2485 108.623 57.9301 114.034 54.3452C121.896 49.1355 133.865 47.2401 144.69 49.4898L147.566 50.0879L144.469 50.1493C137.819 50.2809 131.578 51.6184 126.55 53.9891C121.2 56.5122 121.681 54.7626 121.681 71.6848V86.4139H134.292H146.903V69.6286C146.903 60.3967 147.065 52.8433 147.265 52.8433C148.353 52.8433 152.846 54.445 155.642 55.8289L158.85 57.4173V71.8946V86.3719L161.615 86.5031L164.381 86.6348L161.947 88.471C156.607 92.5008 151.231 94.3467 144.801 94.3582C141.854 94.3635 141.15 94.4925 141.15 95.0274C141.15 95.9581 150.377 95.9351 155.356 94.9925C168.208 92.5586 175.446 84.6528 175.343 73.1624C175.27 65.0051 171.544 58.7208 163.723 53.5611C160.795 51.6299 161.082 51.5107 164.504 53.2378C173.56 57.8096 178.761 65.5352 178.761 74.4164C178.761 77.5429 177.742 81.5815 176.305 84.1479C175.709 85.2124 175.221 86.1577 175.221 86.2487C175.221 86.3397 177.015 86.4139 179.207 86.4139H183.192L183.078 56.0458L182.965 25.6777H170.438H157.911L157.95 38.1133L157.99 50.549L154.712 49.5097C152.909 48.9381 150.415 48.3356 149.169 48.1708L146.903 47.8705V36.6636V25.4568H134.292H121.681V36.7034V47.9504L119.801 48.4332C104.122 52.4586 94.0447 59.9095 90.6527 69.9864C89.4858 73.4521 89.296 79.0527 90.215 82.8802C92.5659 92.6691 101.115 101.667 113.938 107.848C132.157 116.629 151.86 118.936 175.809 115.093C189.82 112.844 203.087 107.797 213.247 100.849C217.768 97.7572 224.217 91.4822 226.993 87.4736C232.281 79.8372 234.505 72.8434 234.51 63.8324C234.514 56.5825 233.28 51.4793 229.876 44.6715C222.562 30.044 208.149 17.9865 187.349 9.09599C171.003 2.10889 152.672 -1.02333 135.841 0.294755ZM108.407 129.847V131.759L112.425 131.724L116.443 131.69L116.464 166.365L116.485 201.04L112.446 201.167L108.407 201.294V203.044V204.794H123.894H139.381V203.028V201.261H135.398H131.416V164.598V127.935H119.912H108.407V129.847ZM0 138.758V140.745H4.13186H8.26371V171.003L8.26416 201.261H4.1323H0V203.028V204.794H16.3717H32.7434V203.028V201.261H28.0973H23.4513V186.463V171.666H35.177H46.9027V186.463V201.261H42.4779H38.0531V203.028V204.794H54.2035H70.354V203.028V201.261H66.1504H61.9469V171.003V140.745H66.1504H70.354V138.758V136.77H54.2035H38.0531V138.758V140.745H42.4779H46.9027V153.997V167.248H35.177H23.4513V154.012V140.776L27.9867 140.65L32.5221 140.524L32.658 138.647L32.7943 136.77H16.3969H0V138.758ZM82.7434 140.956V145.162H90.0066H97.2695L97.5743 141.918C98.0743 136.592 98.6876 137.009 90.1491 136.87L82.7434 136.749V140.956ZM149.558 146.488V156.205H145.575H141.593V157.972V159.739H145.575H149.558L149.562 178.181C149.566 196.609 149.567 196.624 150.605 198.831C151.844 201.464 152.64 202.225 155.547 203.561C157.594 204.501 158.327 204.57 166.323 204.571L174.904 204.574L174.952 202.917L175 201.26H169.137L163.274 201.261V180.5V159.739H169.027H174.779V157.972V156.205H169.027H163.274V146.488V136.77H156.416H149.558V146.488ZM199.558 154.908C198.219 155.106 195.663 155.764 193.878 156.368C182.877 160.096 176.464 168.697 176.38 179.837C176.301 190.319 181.539 198.676 190.929 203.052C202.102 208.258 216.081 206.43 224.482 198.664C226.541 196.76 229.701 191.659 230.627 188.747C231.682 185.425 231.877 178.325 231.01 174.758C229.163 167.15 224.221 160.99 217.257 157.615C211.481 154.816 205.912 153.964 199.558 154.908ZM269.912 155.149C265.884 156.228 263.183 157.695 260.279 160.378L257.522 162.926V159.566V156.205H246.239H234.956V157.972V159.739H238.938H242.92V180.5V201.261H238.938H234.956V203.028V204.794H250H265.044V203.028V201.261H261.257H257.47L257.607 185.911L257.743 170.561L258.969 168.069C262.719 160.447 272.417 157.39 275.77 162.773C276.761 164.362 276.771 164.549 276.899 182.819L277.028 201.261H273.912H270.796V203.028V204.794H285.398H300V203.045V201.295L296.128 201.167L292.257 201.04L292.035 182.708L291.814 164.377L290.651 161.9C289.457 159.359 287.89 157.878 284.735 156.31C280.92 154.415 274.52 153.914 269.912 155.149ZM75.2212 157.972V159.739H79.2035H83.1858V180.5V201.261H79.2035H75.2212V203.028V204.794H90.2655H105.31V203.028V201.261H101.77H98.2301V178.733V156.205H86.7257H75.2212V157.972ZM209.513 159.124C211.579 160.191 213.909 163.039 214.631 165.382C215.385 167.829 215.719 188.081 215.067 191.818C213.66 199.883 209.702 203.5 202.946 202.894C199.628 202.596 196.695 200.837 195.048 198.157C193.268 195.259 192.738 191.054 192.743 179.837C192.747 171.928 192.893 169.585 193.531 167.248C194.916 162.169 197.029 159.587 200.781 158.39C202.858 157.727 207.573 158.123 209.513 159.124Z" fill="#A0A0A0"/>
</svg>
