<svg width="1045" height="206" viewBox="0 0 1045 206" fill="none" xmlns="http://www.w3.org/2000/svg">
<g clip-path="url(#clip0_212_56)">
<path fill-rule="evenodd" clip-rule="evenodd" d="M206.614 68.744L206.61 68.7478V68.7553L205.839 69.2047C195.048 50.5074 176.923 36.0387 157.604 30.8588C138.277 25.6788 113.587 28.6677 94.8928 39.4621L94.4434 38.6943L159.971 0.865174C161.453 0.0102891 163.214 -0.220983 164.867 0.222206C166.52 0.665395 167.929 1.74676 168.784 3.22856L206.614 68.744Z" fill="#A0A0A0"/>
<path fill-rule="evenodd" clip-rule="evenodd" d="M131.225 5.1876V6.08276C109.639 6.04531 88.0353 14.4501 73.8623 28.5667C59.678 42.6871 49.8722 65.5456 49.8273 87.1232H48.9434L49.1044 11.4687C49.1059 10.6214 49.2743 9.78272 49.6 9.00053C49.9258 8.21834 50.4024 7.50799 51.0028 6.91008C51.6031 6.31217 52.3154 5.83841 53.0989 5.51586C53.8825 5.19332 54.7219 5.02832 55.5692 5.03029L131.225 5.1876Z" fill="#A0A0A0"/>
<path fill-rule="evenodd" clip-rule="evenodd" d="M38.9843 33.8848L39.7634 34.3342C28.8901 52.9828 25.3169 75.89 30.4183 95.2353C35.5084 114.592 50.3669 134.533 69.0084 145.406L68.5589 146.17L3.19959 108.067C1.72221 107.203 0.647951 105.789 0.212578 104.134C-0.222796 102.478 0.0162926 100.718 0.877368 99.2392L38.988 33.8923L38.9843 33.8848Z" fill="#A0A0A0"/>
<path fill-rule="evenodd" clip-rule="evenodd" d="M21.7402 135.174L21.744 135.166V135.159L22.5156 134.721C33.194 153.478 51.2137 168.07 70.5069 173.374C89.8001 178.666 114.517 175.835 133.274 165.171L133.713 165.939L67.9487 203.345C66.4617 204.19 64.7002 204.411 63.0507 203.958C61.4013 203.506 59.9986 202.418 59.1505 200.933L21.7402 135.174Z" fill="#A0A0A0"/>
<path fill-rule="evenodd" clip-rule="evenodd" d="M92.2673 203.749V203.745H92.2598L92.2673 202.854C113.849 203.033 135.509 194.763 149.772 180.737C164.046 166.71 173.998 143.915 174.182 122.33L175.066 122.341L174.421 197.992C174.416 198.839 174.243 199.677 173.913 200.457C173.582 201.238 173.102 201.945 172.498 202.54C171.894 203.134 171.178 203.603 170.393 203.92C169.607 204.238 168.767 204.397 167.919 204.389L92.2673 203.749Z" fill="#A0A0A0"/>
<path fill-rule="evenodd" clip-rule="evenodd" d="M189.233 171.298V171.302L188.457 170.849C199.447 152.271 203.162 129.383 198.196 110.004C193.214 90.6174 178.498 70.5718 159.924 59.5863L160.373 58.8223L225.485 97.3518C226.957 98.223 228.023 99.643 228.449 101.3C228.875 102.956 228.625 104.714 227.755 106.187L189.233 171.298Z" fill="#A0A0A0"/>
<path fill-rule="evenodd" clip-rule="evenodd" d="M380.321 185.546H378.254L365.841 167.376V185.542H363.774V164.863H366.572L378.254 182.025V164.863H380.325V185.546H380.321ZM413.046 185.546H410.81L407.821 178.609H398.202L395.217 185.546H392.977L401.892 164.863H404.177L413.046 185.546ZM407.012 176.736L403.038 167.26L399.011 176.736H407.012ZM432.744 166.732H428.021V185.546H425.953V166.732H421.226V164.859H432.744V166.732ZM445.34 185.546H447.407V164.863H445.34V185.546ZM482.9 175.092C482.9 178.182 481.851 180.763 479.754 182.819C477.656 184.879 475.057 185.913 471.944 185.913C468.854 185.913 466.247 184.901 464.146 182.89C462.037 180.883 460.981 178.332 460.981 175.261C460.981 172.167 462.03 169.601 464.127 167.56C466.225 165.515 468.832 164.496 471.944 164.496C475.053 164.496 477.66 165.492 479.757 167.5C481.851 169.504 482.9 172.032 482.9 175.092ZM480.832 175.092C480.832 172.534 479.986 170.448 478.3 168.815C476.615 167.182 474.51 166.373 471.97 166.373C469.431 166.373 467.322 167.212 465.614 168.901C463.903 170.586 463.06 172.706 463.06 175.261C463.06 177.83 463.899 179.939 465.599 181.572C467.292 183.22 469.416 184.04 471.974 184.04C474.51 184.04 476.619 183.193 478.3 181.508C479.986 179.819 480.832 177.68 480.832 175.092ZM512.999 185.542H510.924L498.519 167.376V185.542H496.451V164.863H499.245L510.924 182.025V164.863H512.999V185.546V185.542ZM545.72 185.542H543.487L540.491 178.609H530.876L527.88 185.546H525.648L534.569 164.863H536.862L545.72 185.546V185.542ZM539.686 176.736L535.712 167.26L531.689 176.736H539.686ZM568.991 185.546H558.368V164.863H560.443V183.673H568.991V185.546ZM612.903 185.546H610.663L607.674 178.609H598.06L595.063 185.546H592.823L601.745 164.863H604.041L612.903 185.546ZM606.862 176.736L602.891 167.26L598.872 176.736H606.862ZM632.601 166.732H627.874V185.546H625.806V166.732H621.08V164.859H632.601V166.732ZM663.865 175.092C663.865 178.182 662.816 180.763 660.718 182.819C658.632 184.879 656.018 185.913 652.905 185.913C649.811 185.913 647.212 184.901 645.111 182.89C643.01 180.883 641.953 178.332 641.953 175.261C641.953 172.167 643.002 169.601 645.092 167.56C647.197 165.515 649.797 164.496 652.905 164.496C656.014 164.496 658.632 165.492 660.722 167.5C662.82 169.504 663.865 172.032 663.865 175.092ZM661.797 175.092C661.797 172.534 660.958 170.448 659.273 168.815C657.583 167.182 655.475 166.373 652.935 166.373C650.4 166.373 648.287 167.212 646.583 168.901C644.875 170.586 644.017 172.706 644.017 175.261C644.017 177.83 644.867 179.939 646.56 181.572C648.257 183.22 650.388 184.04 652.935 184.04C655.475 184.04 657.58 183.193 659.273 181.508C660.958 179.819 661.797 177.68 661.797 175.092ZM698.998 185.542H696.923V167.182L689.076 185.546H687.342L679.476 167.182V185.546H677.412V164.863H680.603L688.203 182.467L695.807 164.863H698.998V185.546V185.542ZM713.433 185.542H715.5V164.863H713.433V185.546V185.542ZM749.427 180.148C748.525 181.887 747.168 183.35 745.502 184.381C743.844 185.405 741.93 185.937 739.981 185.913C736.906 185.913 734.337 184.916 732.265 182.916C730.145 180.871 729.078 178.279 729.078 175.144C729.078 172.092 730.112 169.549 732.172 167.522C734.224 165.5 736.779 164.496 739.813 164.496C741.959 164.496 743.865 164.994 745.532 165.976C747.189 166.953 748.517 168.404 749.345 170.141H746.884C746.346 169.284 745.654 168.535 744.843 167.931C743.427 166.893 741.757 166.373 739.839 166.373C737.292 166.373 735.202 167.215 733.58 168.927C731.958 170.635 731.145 172.706 731.145 175.144C731.145 177.661 732.003 179.774 733.711 181.474C735.415 183.186 737.502 184.04 739.981 184.04C741.305 184.045 742.61 183.726 743.783 183.111C745.105 182.444 746.172 181.459 746.974 180.148H749.431H749.427ZM795.46 180.148C794.555 181.888 793.196 183.351 791.527 184.381C789.872 185.404 787.96 185.936 786.014 185.913C782.935 185.913 780.369 184.916 778.298 182.916C776.178 180.871 775.107 178.279 775.107 175.144C775.107 172.092 776.14 169.549 778.201 167.522C780.253 165.5 782.804 164.496 785.841 164.496C787.987 164.496 789.894 164.994 791.561 165.976C793.227 166.964 794.497 168.354 795.377 170.141H792.913C792.375 169.284 791.683 168.535 790.872 167.931C789.456 166.893 787.793 166.373 785.868 166.373C783.321 166.373 781.231 167.215 779.612 168.927C778.817 169.752 778.191 170.726 777.773 171.792C777.355 172.859 777.151 173.999 777.174 175.144C777.174 177.661 778.032 179.774 779.74 181.474C781.444 183.186 783.53 184.04 786.014 184.04C787.355 184.04 788.624 183.729 789.812 183.111C791.137 182.444 792.201 181.459 793.003 180.148H795.46ZM830.027 175.092C830.027 178.182 828.975 180.763 826.881 182.819C824.783 184.879 822.184 185.913 819.072 185.913C815.978 185.913 813.375 184.901 811.273 182.89C809.161 180.883 808.116 178.332 808.116 175.261C808.116 172.167 809.161 169.601 811.258 167.56C813.356 165.515 815.959 164.496 819.072 164.496C822.18 164.496 824.787 165.492 826.885 167.5C828.975 169.504 830.027 172.032 830.027 175.092ZM827.963 175.092C827.963 172.534 827.117 170.448 825.435 168.815C823.75 167.182 821.63 166.373 819.098 166.373C816.566 166.373 814.442 167.212 812.738 168.901C811.034 170.586 810.183 172.706 810.183 175.261C810.183 177.83 811.026 179.939 812.723 181.572C814.42 183.22 816.551 184.04 819.098 184.04C821.63 184.04 823.75 183.193 825.435 181.508C827.117 179.819 827.963 177.68 827.963 175.092ZM865.149 185.542H863.089V167.182L855.235 185.546H853.5L845.642 167.182V185.546H843.578V164.863H846.762L854.366 182.467L861.969 164.863H865.149V185.546V185.542ZM893.214 171.069C893.214 172.792 892.682 174.216 891.618 175.313C890.371 176.601 888.529 177.246 886.075 177.246H881.614V185.546H879.539V164.863H886.079C888.787 164.863 890.731 165.597 891.929 167.062C892.78 168.111 893.214 169.448 893.214 171.069ZM891.147 171.069C891.147 169.833 890.772 168.837 890.023 168.073C889.154 167.182 887.847 166.732 886.113 166.732H881.614V175.373H886.109C887.824 175.373 889.12 174.924 889.997 174.032C890.761 173.264 891.147 172.279 891.147 171.069ZM921.605 185.546H919.369L916.373 178.609H906.758L903.769 185.546H901.522L910.447 164.863H912.74L921.605 185.546ZM915.564 176.736L911.593 167.26L907.567 176.736H915.564ZM950.805 185.546H948.738L936.321 167.376V185.542H934.254V164.863H937.052L948.738 182.025V164.863H950.805V185.546ZM979.53 164.863L972.458 178.609V185.546H970.387V178.609L963.315 164.863H965.581L971.421 176.459L977.264 164.863H979.53ZM384.314 112.307L391.824 93.3925L399.232 112.307H384.314ZM383.078 71.5227L354.747 138.544H374.138L378.898 126.667H404.559L409.405 138.54H429.182L400.858 71.5265H383.078V71.5227ZM357.698 71.7774H335.836L313.014 98.9919V71.7774H294.006V138.319H313.014V121.341L319.719 113.719L336.405 138.319H348.923L352.593 129.746L332.506 100.449L357.698 71.7774ZM518.625 112.307L526.134 93.3925L533.551 112.307H518.628H518.625ZM517.389 71.5227L489.061 138.54H508.456L513.212 126.663H538.873L543.72 138.536H563.496L535.169 71.5227H517.392H517.389ZM490.095 123.109H457.123L489.822 85.4034V71.7812H432.781V88.8904H465.015L430.362 126.671L435.272 138.319H484.117L490.541 123.109H490.095ZM551.993 88.1601H571.957V138.536H590.4V88.1601H610.36V72.0022H551.993V88.1601ZM647.336 123.236C637.26 123.236 630.32 114.873 630.32 105.273C630.32 95.4787 637.069 87.3061 647.145 87.3061C657.318 87.3061 664.258 95.6659 664.258 105.273C664.258 115.064 657.509 123.236 647.336 123.236ZM647.336 70.665C626.799 70.665 611.401 86.16 611.401 105.273C611.401 124.562 626.608 139.87 647.145 139.87C667.67 139.87 683.079 124.375 683.079 105.273C683.079 85.9765 667.861 70.665 647.336 70.665ZM796.67 105.082H787.924V87.4934H796.572C803.228 87.4934 807.21 90.5347 807.21 96.239C807.21 101.659 803.228 105.078 796.67 105.078M797.995 71.9984H769.477V138.54H787.924V119.528H797.052C813.592 119.528 825.656 111.262 825.656 95.5723C825.656 80.6504 814.824 71.9984 797.995 71.9984ZM862.16 103.94H849.995V87.969H862.066C868.247 87.969 872.048 90.6358 872.048 95.8607C872.048 100.898 868.43 103.94 862.16 103.94ZM890.589 94.9131C890.589 88.1601 888.585 83.0288 884.689 79.1298C880.217 74.6614 873.183 72.0022 863.014 72.0022H831.552V138.544H849.995V118.393H858.07L871.471 138.544H892.768L876.891 115.352C885.169 111.831 890.585 105.082 890.585 94.9169M931.647 123.236C921.568 123.236 914.627 114.873 914.627 105.273C914.627 95.4787 921.377 87.3061 931.452 87.3061C941.629 87.3061 948.569 95.6659 948.569 105.273C948.569 115.064 941.82 123.236 931.647 123.236ZM931.647 70.665C911.114 70.665 895.709 86.16 895.709 105.273C895.709 124.562 910.919 139.87 931.452 139.87C951.985 139.87 967.39 124.375 967.39 105.273C967.39 85.9765 952.172 70.665 931.647 70.665ZM724.235 97.5387L708.358 71.7774H689.443V138.319H706.541V100.516L720.969 123.105H727.112L740.764 100.325V138.319H759.776V71.7774H740.112L724.235 97.5387Z" fill="#A0A0A0"/>
<mask id="mask0_212_56" style="mask-type:alpha" maskUnits="userSpaceOnUse" x="974" y="71" width="71" height="68">
<path d="M974.6 71.7783H1044.94V138.32H974.603L974.6 71.7783Z" fill="white"/>
</mask>
<g mask="url(#mask0_212_56)">
<path fill-rule="evenodd" clip-rule="evenodd" d="M1026.32 71.7783L1010.44 97.5396L994.563 71.7783H974.6V138.32H993.616V100.528L1007.17 123.114H1013.32L1027.83 100.334V138.32H1044.94V71.7783H1026.32Z" fill="#A0A0A0"/>
</g>
</g>
<defs>
<clipPath id="clip0_212_56">
<rect width="1045" height="206" fill="white"/>
</clipPath>
</defs>
</svg>
