<svg width="878" height="206" viewBox="0 0 878 206" fill="none" xmlns="http://www.w3.org/2000/svg">
<path fill-rule="evenodd" clip-rule="evenodd" d="M739.883 145.672H817.743V66.997H739.883V145.672ZM680.211 106.341C680.211 51.2977 724.342 6.6377 778.826 6.6377C833.297 6.6377 877.436 51.2977 877.436 106.341C877.436 161.38 833.297 205.998 778.826 205.998C724.342 205.998 680.211 161.38 680.211 106.341ZM698.122 106.341C698.122 151.377 734.246 187.88 778.826 187.88C823.398 187.88 859.537 151.377 859.537 106.341C859.537 61.2812 823.398 24.7554 778.826 24.7554C734.246 24.7554 698.122 61.2812 698.122 106.341Z" fill="#A0A0A0"/>
<path fill-rule="evenodd" clip-rule="evenodd" d="M27.0613 176.166L34.5957 174.276V187.801C34.3083 188.887 33.7041 189.952 33.078 190.881C32.3436 191.946 31.3773 193.019 30.2552 194.093C29.1317 195.084 27.8434 195.935 26.3901 196.605C25.0077 197.32 23.5763 197.667 22.1295 197.667C19.7344 197.667 17.7658 196.751 16.3009 194.937C14.9121 193.08 14.2125 190.84 14.2125 188.207C14.2125 186.712 14.6505 185.3 15.4931 183.969C16.4169 182.662 17.4991 181.512 18.8029 180.508C20.0964 179.454 21.4454 178.533 22.869 177.766C24.3764 177.004 25.7755 176.47 27.0613 176.166ZM35.1587 195.532V202.866H52.0027V196.303H45.9822V164.084C45.9822 161.592 45.481 159.223 44.4593 157.007C43.515 154.723 42.1596 152.714 40.4049 151.025C38.7352 149.343 36.6944 147.993 34.2813 147.037C31.9249 146.075 29.3507 145.612 26.4803 145.612C23.7592 145.612 21.2341 145.861 18.964 146.388C16.7596 146.831 14.7588 147.357 12.9654 147.953C11.2866 148.548 9.87458 149.183 8.78463 149.85L6.51324 151.096V161.286H16.2133V155.057C16.9309 154.342 18.3778 153.685 19.2126 153.325C20.7252 152.548 22.364 152.159 24.1329 152.159C27.5573 152.159 30.1998 153.421 31.9803 156.01C33.735 158.559 34.5957 161.55 34.5957 164.992V168.642L24.6508 170.954C22.4387 171.48 19.9934 172.282 17.3355 173.406C14.7742 174.449 12.3637 175.759 10.1645 177.323C7.96523 178.811 6.12287 180.551 4.66316 182.544C3.21891 184.442 2.5 186.498 2.5 188.657C2.5 193.152 3.99192 196.87 6.96288 199.791C10.0202 202.733 14.273 204.214 19.7821 204.214C23.3779 204.214 26.747 202.652 29.611 200.574C30.947 199.597 32.0486 198.628 32.9246 197.68C33.8149 196.621 34.3354 195.879 34.5428 195.396L35.1587 195.532Z" fill="#A0A0A0"/>
<path fill-rule="evenodd" clip-rule="evenodd" d="M60.2559 196.303V202.865H84.2284V196.303H78.2027V123.625H60.2559V130.178H66.2622V196.303H60.2559Z" fill="#A0A0A0"/>
<path fill-rule="evenodd" clip-rule="evenodd" d="M153.878 196.303V202.865H177.195V196.303H171.183V164.658C171.183 162.672 170.851 160.545 170.181 158.322C169.592 156.046 168.578 153.975 167.113 152.134C165.743 150.216 163.865 148.664 161.53 147.487C159.29 146.247 156.495 145.612 153.099 145.612C151.304 145.612 149.617 145.983 148.098 146.698C146.576 147.37 145.227 148.229 144.057 149.239C142.884 150.208 141.905 151.218 141.103 152.243C140.355 153.212 139.897 153.935 139.683 154.41L139.077 154.28V123.625H121.096V130.178H127.121V196.303H121.096V202.865H144.427V196.303H139.077V162.603C139.152 162.008 139.563 161.141 140.227 160.083C140.918 158.945 141.739 157.839 142.729 156.758C143.788 155.692 144.96 154.792 146.233 154.01C147.563 153.151 148.946 152.713 150.42 152.713C151.975 152.713 153.289 153.075 154.384 153.783C155.536 154.487 156.468 155.374 157.175 156.473C157.851 157.493 158.36 158.643 158.659 159.95C159.029 161.184 159.22 162.366 159.22 163.537V196.303H153.878Z" fill="#A0A0A0"/>
<path fill-rule="evenodd" clip-rule="evenodd" d="M185.416 196.303V202.865H209.417V196.303H203.395V146.96H185.416V153.511H191.446V196.303H185.416ZM202.719 136.583C204.285 135.143 205.061 133.383 205.061 131.305C205.061 129.224 204.285 127.464 202.719 126.024C201.211 124.562 199.432 123.862 197.349 123.862C193.239 123.862 189.772 127.054 189.772 131.305C189.772 135.545 193.239 138.742 197.349 138.742C199.432 138.742 201.211 138.03 202.719 136.583Z" fill="#A0A0A0"/>
<path fill-rule="evenodd" clip-rule="evenodd" d="M217.643 196.303V202.865H241.625V196.303H235.6V123.625H217.643V130.178H223.664V196.303H217.643Z" fill="#A0A0A0"/>
<path fill-rule="evenodd" clip-rule="evenodd" d="M273.876 176.166L281.413 174.276V187.801C281.123 188.887 280.518 189.952 279.91 190.881C279.15 191.946 278.189 193.019 277.068 194.093C275.932 195.084 274.636 195.935 273.197 196.605C271.819 197.32 270.396 197.667 268.928 197.667C266.533 197.667 264.572 196.751 263.106 194.937C261.724 193.08 261.024 190.84 261.024 188.207C261.024 186.712 261.447 185.3 262.298 183.969C263.221 182.662 264.311 181.512 265.607 180.508C266.888 179.454 268.244 178.533 269.673 177.766C271.17 177.004 272.574 176.47 273.876 176.166ZM281.965 195.532V202.866H298.809V196.303H292.794V164.084C292.794 161.592 292.288 159.223 291.258 157.007C290.315 154.723 288.958 152.714 287.217 151.025C285.513 149.343 283.478 147.993 281.067 147.037C278.752 146.075 276.135 145.612 273.284 145.612C270.552 145.612 268.052 145.861 265.763 146.388C263.546 146.831 261.56 147.357 259.791 147.953C258.078 148.548 256.697 149.183 255.62 149.85L253.317 151.096V161.286H263.025V155.057C263.725 154.342 265.189 153.685 266.011 153.325C267.547 152.548 269.19 152.159 270.945 152.159C274.374 152.159 276.999 153.421 278.788 156.01C280.526 158.559 281.413 161.55 281.413 164.992V168.642L271.45 170.954C269.231 171.48 266.8 172.282 264.142 173.406C261.578 174.449 259.168 175.759 256.971 177.323C254.751 178.811 252.929 180.551 251.462 182.544C250.023 184.442 249.299 186.498 249.299 188.657C249.299 193.152 250.804 196.87 253.766 199.791C256.813 202.733 261.08 204.214 266.589 204.214C270.19 204.214 273.572 202.652 276.445 200.574C277.766 199.597 278.833 198.628 279.723 197.68C280.614 196.621 281.157 195.879 281.355 195.396L281.965 195.532Z" fill="#A0A0A0"/>
<path fill-rule="evenodd" clip-rule="evenodd" d="M307.041 196.303V202.865H331.037V196.303H325.002V123.625H307.041V130.178H313.058V196.303H307.041Z" fill="#A0A0A0"/>
<path fill-rule="evenodd" clip-rule="evenodd" d="M406.927 166.286C407.445 168.71 407.719 171.092 407.719 173.443C407.719 176.021 407.42 178.735 406.803 181.615C405.85 186.698 403.822 191.857 399.912 195.324C398.132 196.882 395.994 197.666 393.563 197.666C392.023 197.666 390.445 197.466 388.953 197.32C388.211 197.175 387.478 197.043 386.817 196.971C386.24 196.842 385.727 196.682 385.199 196.42V162.603C385.473 161.023 387.525 158.177 388.515 156.999C390.342 154.891 392.858 152.713 395.775 152.713C397.66 152.713 399.337 153.393 400.802 154.71C402.309 155.956 403.571 157.562 404.556 159.543C405.606 161.535 406.406 163.766 406.927 166.286ZM418.243 185.396C419.42 181.615 419.974 177.62 419.974 173.443C419.974 167.187 418.298 160.413 414.906 155.125C413.235 152.411 410.993 150.14 408.207 148.352C405.459 146.538 402.096 145.612 398.133 145.612C396.638 145.612 395.146 145.999 393.719 146.802C392.254 147.55 390.96 148.422 389.869 149.447C388.774 150.416 387.871 151.427 387.116 152.467C386.376 153.42 385.959 154.085 385.843 154.41L385.199 154.28V123.625H367.236V130.177H373.266V201.25C374.539 201.606 375.991 201.944 377.68 202.305L383.369 203.206C385.281 203.509 387.139 203.73 388.918 203.869C390.679 204.104 392.254 204.213 393.563 204.213C397.747 204.213 401.469 203.412 404.68 201.776C407.981 200.143 410.762 197.941 413.049 195.201C415.339 192.391 417.046 189.108 418.243 185.396Z" fill="#A0A0A0"/>
<path fill-rule="evenodd" clip-rule="evenodd" d="M453.109 176.166L460.67 174.276V187.801C460.369 188.887 459.764 189.952 459.151 190.881C458.396 191.946 457.449 193.019 456.314 194.093C455.175 195.084 453.89 195.935 452.449 196.605C451.065 197.32 449.642 197.667 448.177 197.667C445.778 197.667 443.834 196.751 442.339 194.937C440.97 193.08 440.27 190.84 440.27 188.207C440.27 186.712 440.688 185.3 441.554 183.969C442.464 182.662 443.567 181.512 444.861 180.508C446.134 179.454 447.493 178.533 448.916 177.766C450.408 177.004 451.833 176.47 453.109 176.166ZM461.216 195.532V202.866H478.053V196.303H472.039V164.084C472.039 161.592 471.534 159.223 470.507 157.007C469.568 154.723 468.205 152.714 466.452 151.025C464.792 149.343 462.724 147.993 460.326 147.037C457.972 146.075 455.396 145.612 452.546 145.612C449.793 145.612 447.287 145.861 445.019 146.388C442.792 146.831 440.804 147.357 439.024 147.953C437.326 148.548 435.943 149.183 434.858 149.85L432.571 151.096V161.286H442.287V155.057C442.976 154.342 444.45 153.685 445.243 153.325C446.778 152.548 448.423 152.159 450.189 152.159C453.629 152.159 456.259 153.421 458.054 156.01C459.792 158.559 460.67 161.55 460.67 164.992V168.642L450.709 170.954C448.478 171.48 446.052 172.282 443.393 173.406C440.817 174.449 438.449 175.759 436.215 177.323C433.997 178.811 432.176 180.551 430.708 182.544C429.277 184.442 428.545 186.498 428.545 188.657C428.545 193.152 430.05 196.87 433.023 199.791C436.065 202.733 440.326 204.214 445.835 204.214C449.428 204.214 452.819 202.652 455.683 200.574C457.014 199.597 458.093 198.628 458.959 197.68C459.86 196.621 460.383 195.879 460.588 195.396L461.216 195.532Z" fill="#A0A0A0"/>
<path fill-rule="evenodd" clip-rule="evenodd" d="M504.263 162.553C504.447 161.827 504.836 160.914 505.425 159.874C506.111 158.793 506.948 157.715 507.927 156.669C509.976 154.584 512.608 152.714 515.632 152.714C517.167 152.714 518.47 153.076 519.578 153.783C520.758 154.411 521.661 155.262 522.374 156.364C523.053 157.381 523.538 158.523 523.853 159.833C524.243 161.072 524.428 162.291 524.428 163.529V196.303H519.071V202.866H542.381V196.303H536.361V164.992C536.361 162.769 536.044 160.519 535.374 158.206C534.016 153.312 531.039 149.655 526.51 147.37C524.27 146.207 521.523 145.612 518.304 145.612C514.768 145.612 511.566 147.109 508.81 149.255C507.624 150.216 506.658 151.219 505.85 152.244C505.028 153.207 504.535 153.935 504.331 154.411L503.714 154.28V146.96H486.297V153.511H492.316V196.303H486.297V202.866H509.625V196.303H504.263V162.553Z" fill="#A0A0A0"/>
<path fill-rule="evenodd" clip-rule="evenodd" d="M550.621 196.303V202.865H573.17V196.303H568.582V123.625H550.621V130.178H556.656V196.303H550.621ZM581.048 196.303V202.865H607.037V196.303H601.215L580.515 170.163L596.979 153.51H603.048V146.96H581.494V153.51H587.83L569.445 173.246L586.391 196.303H581.048Z" fill="#A0A0A0"/>
<path fill-rule="evenodd" clip-rule="evenodd" d="M167.696 45.8917H161.687V39.3294H179.648V54.4713C184.251 55.0534 188.869 56.486 192.046 58.3548C195.277 60.1962 198.005 62.5365 200.192 65.3625C202.403 68.1051 204.127 71.1083 205.267 74.4044C206.362 77.6172 206.923 80.5604 206.923 83.3096C206.923 85.3047 206.596 87.029 206.047 88.6972H228.954V22.5726H222.932V16.0155H240.914V88.6972H246.925V95.2517H68.2436V88.6972H106.451V22.5726H100.45V16.0155H118.411V88.6972H141.317C140.762 87.029 140.439 85.3047 140.439 83.3096C140.439 80.5604 141.003 77.6172 142.082 74.4044C143.235 71.1083 144.96 68.1051 147.167 65.3625C149.385 62.5365 152.097 60.1962 155.317 58.3548C158.482 56.4977 163.113 55.0664 167.696 54.4713V45.8917ZM179.648 61.4022V88.6972H193.566C195.322 85.3451 195.15 80.2296 193.157 74.3771C190.552 66.7468 185.292 62.0533 179.648 61.4022ZM167.696 88.6972V61.4022C162.044 62.0663 156.83 66.7612 154.2 74.3771C152.215 80.2296 152.045 85.3451 153.811 88.6972H167.696ZM14.0616 92.4362C14.0616 105.44 20.3552 116.641 28.1434 116.641C35.9457 116.641 42.2548 108.456 42.2548 92.7513L42.2148 22.5726H36.2008V16.0155H54.0433V93.1407C54.0433 113.97 42.5009 123.625 28.2683 123.625C14.0332 123.625 2.48438 109.662 2.48438 92.4362H14.0616ZM68.2436 75.4918H74.2577V22.5726H68.2436V16.0155H86.1969V75.4918H92.2432V82.049H68.2436V75.4918ZM255.136 88.6972H261.171V22.5726H255.136V16.0155H273.093V88.6972H279.121V95.2517H255.136V88.6972ZM534.317 71.4143C534.317 78.2254 531.47 84.3553 526.975 88.6972H564.704C560.49 84.3762 557.813 78.8635 556.58 72.8C555.847 68.9699 555.513 65.5279 555.513 62.4049C555.513 59.4774 555.991 56.2646 557.037 52.7822C558.127 49.2725 559.733 46.0727 561.869 43.1373C564.053 40.1173 566.761 37.6246 569.964 35.6438C573.157 33.6643 576.896 32.6954 581.22 32.6954C585.527 32.6954 589.283 33.637 592.473 35.5344C595.746 37.3472 598.46 39.7292 600.562 42.6594C602.761 45.5049 604.372 48.7177 605.391 52.2886C606.502 55.8061 607.037 59.1635 607.037 62.4049C607.037 65.2661 606.644 68.6156 605.873 72.4509C605.092 76.1625 603.68 79.7361 601.625 83.1624C599.667 86.551 597.015 89.4422 593.653 91.8254C590.379 94.0979 586.239 95.2517 581.22 95.2517H431.722V105.259C431.722 107.405 431.435 109.565 430.926 111.712C430.421 113.935 429.542 115.934 428.297 117.687C425.406 122.069 421.229 123.625 416.123 123.625C413.557 123.625 412.062 123.336 410.378 122.733C408.994 122.306 407.988 121.896 407.384 121.594L411.146 115.229C411.481 115.52 411.974 115.853 412.57 116.254C413.517 116.793 414.528 117.078 415.64 117.078C417.076 117.078 418.131 116.158 418.831 114.509C419.515 112.971 419.866 111.234 419.866 109.302V45.8917H413.174V39.3294H431.722V88.6972H456.342V45.8917H450.304V39.3294H468.259V47.5678L510.699 47.5404C523.729 47.5404 534.317 58.231 534.317 71.4143ZM468.259 88.6972H504.104C513.344 88.6972 520.823 80.5331 520.823 71.6904C520.823 62.7982 513.317 55.6889 504.104 55.6889H468.259V88.6972ZM593.418 55.3998C593.104 52.803 592.473 50.3703 591.501 48.1069C590.514 45.7393 589.212 43.7728 587.501 42.2244C585.857 40.5444 583.758 39.7292 581.22 39.7292C578.758 39.7292 576.706 40.5197 575.047 42.0916C571.555 45.4619 569.855 50.4472 569.116 55.1433C568.731 57.7323 568.527 60.1155 568.527 62.2903C568.527 64.615 568.683 67.273 569.005 70.2644C569.39 73.2427 570.034 76.074 570.91 78.7398C571.884 81.3444 573.17 83.587 574.781 85.4623C576.444 87.3116 578.588 88.2037 581.22 88.2037C583.824 88.2037 585.986 87.3519 587.609 85.5938C589.322 83.8618 590.619 81.7025 591.501 79.1135C592.473 76.5089 593.104 73.7259 593.418 70.7501C593.816 67.6897 594.02 64.8715 594.02 62.2903C594.02 60.2653 593.816 57.9758 593.418 55.3998ZM385.773 73.36L385.149 73.2427C384.938 73.7949 384.445 74.5854 383.637 75.6364C381.912 77.9232 379.644 79.7764 377.073 80.942C375.69 81.6817 374.251 82.049 372.744 82.049C368.921 82.049 365.676 81.0787 362.903 79.1695C360.182 77.2434 357.951 74.8068 356.19 71.8441C354.427 68.8657 353.112 65.5565 352.222 61.9009C351.401 58.2428 350.998 54.6979 350.998 51.2793C350.998 48.5445 351.539 45.5661 352.653 42.3689C353.838 39.1054 355.509 36.0892 357.724 33.3309C359.921 30.5127 362.648 28.1881 365.879 26.3245C369.169 24.401 372.907 23.4373 377.102 23.4373C378.65 23.4373 380.479 23.5819 382.623 23.8749C384.772 24.108 386.899 24.401 388.985 24.7748C391.036 25.0782 392.882 25.4233 394.533 25.7971L397.61 26.5199V95.2517H313.571V88.6972H319.604V45.8917H313.571V39.3294H331.55V88.6972H385.773V73.36ZM385.773 64.9757V31.2967C385.197 31.1574 384.65 31.0831 384.06 31.0037L381.733 30.557C380.894 30.4112 380.075 30.2913 379.259 30.2236C378.416 30.066 377.704 29.9866 377.102 29.9866C374.855 29.9866 372.842 30.7706 371.073 32.3269C369.415 33.8532 367.978 35.7272 366.777 37.9229C365.663 40.0613 364.757 42.3377 364.073 44.7574C363.471 47.1784 363.175 49.3532 363.175 51.2793C363.175 53.3982 363.401 55.8218 363.841 58.5358C364.654 63.2723 366.455 68.6586 369.621 72.3546C371.149 74.0437 372.978 74.9318 375.087 74.9318C376.355 74.9318 377.567 74.5294 378.718 73.7533C379.924 73.0057 381.036 72.1058 382.019 71.1083C383.335 69.6692 385.336 66.9344 385.773 64.9757ZM377.799 0.000976562C382.032 0.000976562 385.437 3.36353 385.437 7.48403C385.437 11.5967 382.032 14.941 377.799 14.941C373.554 14.941 370.156 11.5967 370.156 7.48403C370.156 3.36353 373.554 0.000976562 377.799 0.000976562Z" fill="#A0A0A0"/>
</svg>
