<svg width="773" height="206" viewBox="0 0 773 206" fill="none" xmlns="http://www.w3.org/2000/svg">
<g clip-path="url(#clip0_212_29)">
<path d="M51.9274 85.3735C79.2747 67.5373 105.433 56.3991 121.682 54.6184C122.898 54.438 124.217 54.3533 125.652 54.3659C127.087 54.3533 128.407 54.438 129.623 54.6184C145.871 56.3991 172.03 67.5373 199.376 85.3735C200.932 86.3895 202.467 87.4093 203.984 88.4387V0H0V129.372C11.221 115.845 29.6782 99.886 51.9274 85.3735Z" fill="#A0A0A0"/>
<path d="M125.652 60.4688C109.585 63.5942 84.176 77.0075 58.027 97.2662C27.2849 121.086 4.72221 147.237 0 162.995V205.999H203.984V105.935C200.543 103.026 196.971 100.131 193.278 97.2662C167.127 77.0075 141.718 63.5942 125.652 60.4688Z" fill="#A0A0A0"/>
<path d="M265.123 46.8049C265.123 51.1091 265.65 54.9914 266.704 58.4515C267.757 61.912 269.274 64.8869 271.255 67.3764C273.236 69.8663 275.659 71.7864 278.525 73.1367C281.391 74.487 284.678 75.1622 288.387 75.1622C292.011 75.1622 295.277 74.487 298.185 73.1367C301.093 71.7864 303.538 69.8663 305.518 67.3764C307.499 64.8869 309.016 61.912 310.07 58.4515C311.123 54.9914 311.65 51.1091 311.65 46.8049C311.65 42.5007 311.123 38.5973 310.07 35.0947C309.016 31.5925 307.499 28.5964 305.518 26.1066C303.538 23.6167 301.093 21.697 298.185 20.3463C295.277 18.996 292.011 18.3208 288.387 18.3208C284.678 18.3208 281.391 19.017 278.525 20.4099C275.659 21.8023 273.236 23.7435 271.255 26.233C269.274 28.7229 267.757 31.7189 266.704 35.2215C265.65 38.7237 265.123 42.585 265.123 46.8049ZM332.006 46.8049C332.006 54.3163 330.889 60.9203 328.655 66.617C326.421 72.3136 323.366 77.0823 319.489 80.9221C315.612 84.7622 310.997 87.6529 305.645 89.5941C300.292 91.5349 294.54 92.5054 288.387 92.5054C282.402 92.5054 276.755 91.5349 271.445 89.5941C266.135 87.6529 261.499 84.7622 257.537 80.9221C253.576 77.0823 250.457 72.3136 248.181 66.617C245.906 60.9203 244.768 54.3163 244.768 46.8049C244.768 39.2935 245.948 32.6895 248.308 26.9928C250.668 21.2958 253.85 16.5065 257.853 12.6242C261.857 8.74182 266.493 5.83008 271.761 3.88928C277.029 1.94812 282.571 0.977539 288.387 0.977539C294.371 0.977539 300.018 1.94812 305.328 3.88928C310.639 5.83008 315.274 8.74182 319.236 12.6242C323.197 16.5065 326.316 21.2958 328.592 26.9928C330.868 32.6895 332.006 39.2935 332.006 46.8049ZM410.52 3.003V19.8401H384.096V90.7332H364.372V19.8401H337.948V3.003H410.52ZM442.002 19.7137V34.1452H448.45C454.94 34.1452 460.735 34.6517 465.834 35.6645C470.934 36.6772 475.232 38.3229 478.73 40.6017C482.228 42.8804 484.904 45.8343 486.759 49.4634C488.613 53.0924 489.54 57.5231 489.54 62.7557C489.54 72.4615 486.021 79.6986 478.983 84.4668C471.945 89.235 461.893 91.6195 448.829 91.6195C445.289 91.6195 441.264 91.4084 436.755 90.9865C432.245 90.5643 427.715 89.8048 423.163 88.7078V3.003H481.322V19.7137H442.002ZM449.84 74.7824C452.453 74.7824 454.94 74.6134 457.3 74.2759C459.66 73.9383 461.746 73.3264 463.558 72.4405C465.37 71.5542 466.824 70.3514 467.92 68.8325C469.016 67.3132 469.564 65.3299 469.564 62.8825C469.564 60.3505 469.058 58.2829 468.047 56.6793C467.035 55.0757 465.602 53.8097 463.748 52.8813C461.893 51.9529 459.618 51.3199 456.92 50.9823C454.223 50.6447 451.189 50.4761 447.818 50.4761H442.002V74.5292C442.929 74.6135 444.046 74.6767 445.352 74.7188C446.658 74.7614 448.155 74.7824 449.84 74.7824ZM564.135 90.7332C563.144 87.674 562.112 84.5511 560.974 81.3443C559.857 78.1371 558.741 74.93 557.624 71.7439H523.403C522.307 74.951 521.19 78.1582 520.073 81.3654C518.978 84.5933 517.945 87.6951 516.976 90.7332H496.494C499.802 81.2807 502.921 72.5458 505.871 64.5283C508.842 56.5103 511.729 48.9568 514.574 41.8677C517.397 34.7782 520.179 28.0477 522.939 21.6759C525.678 15.3037 528.544 9.0794 531.494 3.003H550.185C553.072 9.0794 555.917 15.3037 558.698 21.6759C561.501 28.0477 564.304 34.7782 567.148 41.8677C569.993 48.9568 572.88 56.5103 575.851 64.5283C578.822 72.5458 581.941 81.2807 585.249 90.7332H564.135ZM540.429 22.8783C539.986 24.1443 539.354 25.8954 538.49 28.0688C537.648 30.2632 536.678 32.7949 535.604 35.6855C534.529 38.5551 533.307 41.7198 531.979 45.1802C530.631 48.6192 529.282 52.2483 527.891 56.0463H552.946C551.618 52.2483 550.312 48.5982 549.047 45.1381C547.804 41.6776 546.603 38.513 545.465 35.6223C544.348 32.7527 543.358 30.2207 542.494 28.0266C541.651 25.8322 540.956 24.1232 540.429 22.8783ZM634.052 92.5054C619.807 92.5054 608.955 88.5388 601.496 80.6056C594.036 72.6723 590.306 61.4054 590.306 46.8049C590.306 39.5468 591.445 33.0692 593.72 27.3726C595.996 21.6759 599.115 16.8651 603.076 12.9407C607.038 9.01617 611.758 6.0412 617.236 4.01574C622.715 1.99027 628.658 0.977539 635.063 0.977539C638.772 0.977539 642.144 1.25189 645.178 1.80022C648.212 2.34892 650.867 2.98193 653.143 3.69924C655.419 4.41654 657.315 5.15492 658.832 5.91475C660.35 6.67421 661.445 7.26506 662.12 7.68694L656.43 23.6378C653.733 22.2031 650.593 20.9793 647.011 19.9666C643.429 18.9538 639.362 18.4476 634.81 18.4476C631.776 18.4476 628.805 18.9538 625.897 19.9666C622.989 20.9793 620.418 22.604 618.185 24.8405C615.951 27.0771 614.16 29.9678 612.812 33.5122C611.463 37.0569 610.788 41.3611 610.788 46.4252C610.788 50.4761 611.231 54.2527 612.116 57.7553C613.001 61.2579 614.434 64.275 616.414 66.8066C618.396 69.3387 620.987 71.3431 624.19 72.8202C627.393 74.297 631.271 75.0353 635.822 75.0353C638.688 75.0353 641.259 74.8667 643.534 74.5292C645.81 74.1916 647.833 73.7908 649.603 73.3264C651.373 72.8623 652.932 72.3347 654.281 71.7439C655.63 71.1534 656.852 70.6047 657.948 70.0981L663.384 85.9225C660.603 87.6108 656.683 89.1297 651.626 90.48C646.569 91.8303 640.711 92.5054 634.052 92.5054ZM742.278 61.9963C742.278 66.8913 741.329 71.1955 739.433 74.9089C737.537 78.6222 734.839 81.7451 731.341 84.2768C727.843 86.8088 723.587 88.7078 718.572 89.9738C713.557 91.2398 707.973 91.8724 701.819 91.8724C698.279 91.8724 694.255 91.6195 689.745 91.113C685.236 90.6068 680.663 89.8048 676.027 88.7078V3.003H695.751V32.1197C696.678 32.0354 697.542 31.9933 698.342 31.9933C699.143 31.9933 700.007 31.9933 700.934 31.9933C714.673 31.9933 724.998 34.4406 731.91 39.3357C738.822 44.2307 742.278 51.7843 742.278 61.9963ZM753.277 3.003H773V90.7332H753.277V3.003ZM699.67 48.7039C699.249 48.7039 698.659 48.7039 697.9 48.7039C697.142 48.7039 696.425 48.7461 695.751 48.8304V75.0353C696.678 75.12 697.732 75.1622 698.911 75.1622C700.092 75.1622 701.524 75.1622 703.21 75.1622C705.823 75.1622 708.268 74.951 710.543 74.5292C712.819 74.1073 714.821 73.3896 716.549 72.3769C718.277 71.3641 719.625 70.0138 720.595 68.3259C721.564 66.638 722.049 64.5283 722.049 61.9963C722.049 56.8479 720.131 53.3457 716.296 51.4888C712.461 49.632 706.919 48.7039 699.67 48.7039ZM258.422 157.93V196.668C260.024 196.837 261.941 197.027 264.175 197.238C266.408 197.448 269.126 197.554 272.329 197.554C276.122 197.554 279.747 197.259 283.203 196.668C286.658 196.077 289.672 195.022 292.242 193.503C294.813 191.984 296.878 189.959 298.438 187.426C299.997 184.894 300.776 181.688 300.776 177.805C300.776 173.754 300.039 170.441 298.564 167.868C297.089 165.294 294.982 163.268 292.242 161.791C289.503 160.314 286.195 159.301 282.317 158.753C278.44 158.204 274.099 157.93 269.295 157.93H258.422ZM270.433 150.587C276.67 150.587 282.233 151.094 287.122 152.107C292.011 153.119 296.12 154.702 299.449 156.854C302.778 159.006 305.328 161.812 307.098 165.272C308.868 168.733 309.753 172.868 309.753 177.679C309.753 186.878 306.55 193.735 300.144 198.25C293.739 202.765 284.34 205.023 271.95 205.023C268.41 205.023 264.596 204.833 260.508 204.454C256.42 204.074 252.859 203.462 249.825 202.618V116.533H301.915V124.003H258.422V150.587H270.433ZM386.245 204.264C384.58 199.959 383.042 195.803 381.63 191.836C380.218 187.848 378.891 183.987 377.605 180.211H334.808C333.333 184.009 331.9 187.891 330.509 191.857C329.097 195.845 327.622 199.98 326.063 204.264H317.086C320.416 195.128 323.555 186.625 326.527 178.734C329.476 170.843 332.384 163.373 335.229 156.348C338.074 149.3 340.898 142.549 343.7 136.05C346.503 129.572 349.453 123.053 352.551 116.533H360.136C363.213 123.032 366.142 129.53 368.923 136.029C371.705 142.528 374.507 149.3 377.373 156.326C380.218 163.373 383.126 170.843 386.055 178.734C388.984 186.625 392.208 195.149 395.727 204.264H386.245ZM356.09 126.408C352.93 133.687 349.832 141.093 346.819 148.583C343.827 156.094 340.708 164.175 337.505 172.868H374.887C371.663 164.175 368.502 156.073 365.447 148.562C362.37 141.05 359.251 133.666 356.09 126.408ZM464.379 116.533H472.977V204.264H464.379V162.107H416.841V204.264H408.244V116.533H416.841V154.638H464.379V116.533ZM549.215 204.264C546.349 199.875 543.126 195.507 539.543 191.203C535.961 186.899 532.189 182.848 528.227 179.029C524.266 175.231 520.241 171.771 516.153 168.648C512.065 165.504 508.125 162.888 504.332 160.778V204.264H495.735V116.533H504.332V157.36C507.535 154.491 511.096 151.178 515.015 147.444C518.956 143.688 522.833 139.911 526.668 136.134C530.503 132.337 534.107 128.708 537.478 125.247C540.85 121.808 543.547 118.896 545.591 116.533H555.958C553.493 119.15 550.543 122.251 547.087 125.817C543.631 129.404 539.965 133.096 536.087 136.894C532.21 140.671 528.354 144.405 524.498 148.077C520.663 151.727 517.228 154.955 514.194 157.74C516.638 159.259 519.272 161.137 522.096 163.373C524.919 165.61 527.785 168.078 530.693 170.737C533.601 173.395 536.467 176.181 539.29 179.092C542.114 182.025 544.769 184.958 547.256 187.912C549.742 190.865 551.976 193.735 553.956 196.541C555.937 199.326 557.56 201.901 558.824 204.264H549.215Z" fill="#A0A0A0"/>
</g>
<defs>
<clipPath id="clip0_212_29">
<rect width="773" height="206" fill="white"/>
</clipPath>
</defs>
</svg>
