<svg width="857" height="206" viewBox="0 0 857 206" fill="none" xmlns="http://www.w3.org/2000/svg">
<g clip-path="url(#clip0_212_15)">
<path fill-rule="evenodd" clip-rule="evenodd" d="M0 103.307L167.967 206C171.687 181.165 148.273 166.507 148.054 164.358C147.798 161.61 166.694 154.758 168.087 135.954C170.442 104.566 126.732 102.569 125.233 126.041C124.434 138.312 138.322 138.591 138.754 129.477C139.355 117.275 152.212 119.578 154.206 133.311C156.221 147.064 139.928 152.886 133.415 152.705C123.274 152.4 109.781 144.274 108.558 132.267C106.868 115.731 125.862 113.595 101.359 115.634C91.7344 116.427 84.7122 111.369 80.2429 103.23C85.7941 95.6608 91.7344 90.402 101.359 91.2086C125.862 93.2609 106.868 91.1044 108.558 74.4087C109.781 62.297 123.274 54.0812 133.415 53.7821C139.928 53.5873 156.221 59.4657 154.206 73.3581C152.212 87.209 139.355 89.5323 138.754 77.2258C138.322 68.0156 124.434 68.3072 125.233 80.6975C126.732 104.378 170.442 102.374 168.087 70.6865C166.715 52.0847 148.513 45.0585 148.061 42.1715C147.827 40.648 171.609 24.5573 167.967 -0.0205078" fill="#A0A0A0"/>
<path d="M837.372 132.877C834.588 134.241 830.426 135.152 826.102 135.152C815.148 135.152 808.666 130.602 808.666 119.972C808.666 105.099 819.62 101.301 837.372 99.1723V132.877ZM854.957 139.555V88.8484C854.957 67.7489 841.38 60.6185 824.253 60.6185C811.134 60.6185 801.107 64.2637 795.701 66.838L800.025 77.4676C805.115 75.0394 812.828 72.4586 820.857 72.4586C830.58 72.4586 837.372 75.3387 837.372 85.9683V90.3722C812.062 92.7998 790.92 99.0261 790.92 120.578C790.92 136.369 802.177 145.475 824.865 145.475C837.836 145.475 848.32 143.048 854.957 139.555ZM774.869 143.959V85.6625C774.869 72.4586 766.686 60.6185 741.846 60.6185C727.799 60.6185 717.16 62.8933 709.286 66.5386V143.959H728.114V74.5804C731.658 73.2169 734.899 72.3054 741.072 72.3054C752.961 72.3054 756.047 79.29 756.047 85.9683V143.959H774.869ZM671.63 132.877C668.859 134.241 664.69 135.152 660.373 135.152C649.412 135.152 642.932 130.602 642.932 119.972C642.932 105.099 653.884 101.301 671.63 99.1723V132.877ZM689.233 139.555V88.8484C689.233 67.7489 675.644 60.6185 658.517 60.6185C645.398 60.6185 635.373 64.2637 629.97 66.838L634.291 77.4676C639.383 75.0394 647.099 72.4586 655.121 72.4586C664.851 72.4586 671.63 75.3387 671.63 85.9683V90.3722C646.326 92.7998 625.183 99.0261 625.183 120.578C625.183 136.369 636.447 145.475 659.142 145.475C672.093 145.475 682.59 143.048 689.233 139.555ZM613.457 143.201V131.66C611.916 132.119 610.678 132.418 608.981 132.418C602.504 132.418 599.88 128.167 599.88 121.788V73.9752H613.457V62.135H599.88V38.9068L581.048 44.0686V62.135H571.791V73.9752H581.048V122.706C581.048 134.087 587.533 144.87 603.89 144.87C608.366 144.87 611.761 143.959 613.457 143.201ZM560.526 120.424C560.526 110.866 556.828 102.665 540.619 96.2921C533.37 93.4049 528.279 90.0658 528.279 83.3875C528.279 77.6202 532.444 72.6118 540.152 72.6118C546.022 72.6118 550.958 75.1926 553.426 77.1612L558.058 66.3854C552.655 62.8933 545.718 60.6185 536.454 60.6185C520.557 60.6185 510.07 71.2412 510.07 84.2991C510.07 92.7998 513.308 101.301 529.05 107.221C537.536 110.407 541.241 113.746 541.241 120.731C541.241 127.409 536.143 132.272 528.435 132.272C521.638 132.272 515.932 129.997 512.849 127.562L507.905 139.402C512.849 142.742 521.179 145.323 530.902 145.323C549.105 145.323 560.526 133.789 560.526 120.424ZM475.348 132.877C472.568 134.241 468.403 135.152 464.082 135.152C453.128 135.152 446.643 130.602 446.643 119.972C446.643 105.099 457.597 101.301 475.348 99.1723V132.877ZM492.935 139.555V88.8484C492.935 67.7489 479.357 60.6185 462.229 60.6185C449.111 60.6185 439.084 64.2637 433.681 66.838L438.002 77.4676C443.093 75.0394 450.808 72.4586 458.835 72.4586C468.551 72.4586 475.348 75.3387 475.348 85.9683V90.3722C450.038 92.7998 428.893 99.0261 428.893 120.578C428.893 136.369 440.158 145.475 462.844 145.475C475.814 145.475 486.301 143.048 492.935 139.555ZM378.592 60.7715C357.604 60.1593 347.109 62.4341 338.467 66.5386V143.959H357.292V74.8868C361.62 72.4586 368.558 72.1528 374.887 74.281L378.592 60.7715ZM317.79 143.959V62.135H298.965V143.959H317.79ZM318.716 38.9068C318.716 33.7519 314.24 29.6475 308.378 29.6475C302.67 29.6475 298.039 33.7519 298.039 38.9068C298.039 43.9155 302.67 48.02 308.378 48.02C314.24 48.02 318.716 43.9155 318.716 38.9068ZM260.693 132.877C257.914 134.241 253.749 135.152 249.428 135.152C238.473 135.152 231.989 130.602 231.989 119.972C231.989 105.099 242.943 101.301 260.693 99.1723V132.877ZM278.28 139.555V88.8484C278.28 67.7489 264.71 60.6185 247.575 60.6185C234.457 60.6185 224.429 64.2637 219.027 66.838L223.347 77.4676C228.439 75.0394 236.161 72.4586 244.181 72.4586C253.904 72.4586 260.693 75.3387 260.693 85.9683V90.3722C235.383 92.7998 214.246 99.0261 214.246 120.578C214.246 136.369 225.511 145.475 248.197 145.475C261.159 145.475 271.647 143.048 278.28 139.555Z" fill="#A0A0A0"/>
</g>
<defs>
<clipPath id="clip0_212_15">
<rect width="857" height="206" fill="white"/>
</clipPath>
</defs>
</svg>
