<svg width="634" height="206" viewBox="0 0 634 206" fill="none" xmlns="http://www.w3.org/2000/svg">
<path fill-rule="evenodd" clip-rule="evenodd" d="M211.726 5.18237C243.963 18.6687 237.276 58.5668 196.526 95.8554C177.622 113.154 165.818 118.067 174.861 133.284C173.597 151.613 173.785 152.019 182.595 149.834C213.554 142.153 211.394 141.854 209.042 153.514C207.858 159.393 205.849 166.893 204.578 170.185C201.252 178.781 212.319 188.193 225.749 188.193C232.06 188.193 246.456 185.536 257.74 182.288C275.744 177.106 279.173 174.548 285.712 161.386C297.771 137.123 330.241 125.12 336.888 142.467C341.691 154.997 328.943 165.299 301.055 171.414C286.896 174.522 289.428 184.402 305.907 190.352C326.713 197.867 351.7 196.361 383.278 185.691C412.408 175.843 412.581 175.832 425.325 182.705C435.898 188.407 439.765 188.854 447.588 185.288C459.768 179.73 459.543 173.511 446.71 161.202C434.733 149.712 428.923 148.904 419.534 157.415C415.811 160.785 411.63 162.405 410.24 161.014C406.897 157.662 446.102 118.067 452.767 118.067C456.97 118.067 456.808 119.639 451.919 126.371C440.775 141.714 440.864 144.431 452.815 153.798C461.887 160.906 464.424 165.708 464.424 175.792C464.424 189.965 465.319 190.049 493.381 178.549C504.569 173.965 506.737 174.182 516.071 180.837C527.631 189.079 535.281 189.99 545.769 184.373C555.674 179.065 554.741 174.699 541.017 162.15C526.887 149.229 524.524 148.948 513.896 158.943C508.786 163.748 504.86 165.158 503.36 162.726C500.779 158.548 527.661 127.379 539.159 121.219C548.762 116.074 551.711 120.259 544.276 128.486C535.502 138.189 536.648 144.77 549.212 156.821C556.367 163.686 560.271 171.093 560.271 177.811C560.271 195.349 580.41 188.946 591.54 167.867C601.637 148.741 608.217 145.18 622.506 151.104C632.614 155.296 634 157.618 634 170.355C634 180.811 631.486 187.355 624.95 193.895C614.237 204.621 610.882 204.964 596.977 196.737C588.336 191.629 584.756 191.301 576.882 194.892C562.789 201.321 524.623 200.402 512.69 193.345C503.507 187.912 501.248 187.912 485.267 193.345C462.164 201.199 426.409 201.236 419.925 193.415C414.406 186.757 404.67 187.816 379.636 197.797C354.45 207.839 311.54 207.042 294.033 196.209C280.868 188.067 279.847 187.983 261.172 193.534C217.377 206.555 192.143 198.118 196.397 171.872L198.469 159.076L181.102 161.135C159.894 163.652 153.207 157.695 155.47 138.3C167.661 119.913 155.968 125.652 151.272 127.641C148.123 128.973 135.007 133.849 122.123 138.474C109.239 143.102 97.4901 148.291 96.0192 150.007C94.5446 151.724 90.2794 163.608 86.5377 176.415C82.4163 190.526 76.9603 201.188 72.6951 203.473C61.8275 209.297 61.6727 205.551 72.0205 187.016C84.4659 164.719 83.2494 149.904 68.8354 148.251C56.6591 146.852 53.0501 140.112 58.7604 129.427C64.6365 118.44 71.2906 119.695 68.3967 131.243C66.2291 139.887 66.9221 140.625 76.223 139.548C86.0179 138.414 86.7663 136.813 94.7437 99.9633C99.3149 78.8406 105.663 57.5739 108.848 52.7057C115.281 42.877 124.198 38.1527 128.194 42.4525C129.629 43.999 128.692 46.0142 126.115 46.9332C118.709 49.5795 110.946 67.6056 104.974 96.0178C97.9693 129.368 98.0578 132.852 105.917 132.731C117.161 132.557 161.247 111.966 180.199 98.0366C217.716 70.466 232.923 30.0181 211.143 15.7308C184.505 -1.74165 95.2414 16.4505 48.9176 48.7971C19.4039 69.4031 9.31412 82.5314 9.31412 100.34C9.31412 109.242 7.59993 114.376 4.62497 114.376C-1.79312 114.376 -1.45028 90.8173 5.14845 78.2057C15.5921 58.2419 46.0458 34.5578 77.6497 21.8133C128.821 1.17779 185.382 -5.8348 211.726 5.18237ZM164.594 131.601C163.241 132.952 162.187 136.691 162.246 139.906C162.338 144.704 163.061 144.545 166.272 139.012C170.242 132.177 169.092 127.098 164.594 131.601ZM307.035 153.012C297.682 161.25 297.406 162.136 304.163 162.239C312.542 162.372 328.025 152.731 328.025 147.383C328.025 140.98 317.486 143.807 307.035 153.012ZM604.508 164.202C601.95 167.292 601.548 169.739 603.605 169.739C605.633 169.739 609.356 167.247 611.881 164.202C614.44 161.113 614.842 158.666 612.785 158.666C610.757 158.666 607.034 161.157 604.508 164.202ZM610.868 178.39C600.232 187.104 600.84 191.884 612.585 191.884C618.145 191.884 626.627 179.471 626.627 171.344C626.627 167.746 620.526 170.473 610.868 178.39Z" fill="#A0A0A0"/>
<path d="M416.5 60.8588C416.5 67.9932 410.723 73.7767 403.597 73.7767C396.472 73.7767 390.695 67.9932 390.695 60.8588C390.695 53.7244 396.472 47.9408 403.597 47.9408C410.723 47.9408 416.5 53.7244 416.5 60.8588Z" fill="#A0A0A0"/>
<path d="M387.008 101.458C387.008 114.708 376.28 125.449 363.047 125.449C349.813 125.449 339.085 114.708 339.085 101.458C339.085 88.2085 349.813 77.4676 363.047 77.4676C376.28 77.4676 387.008 88.2085 387.008 101.458Z" fill="#A0A0A0"/>
</svg>
