<svg width="40" height="40" viewBox="0 0 40 40" fill="none" xmlns="http://www.w3.org/2000/svg">
<path fill-rule="evenodd" clip-rule="evenodd" d="M40 20C40 8.95431 31.0457 0 20 0V0C8.95431 0 0 8.95431 0 20V20C0 31.0457 8.95431 40 20 40V40C31.0457 40 40 31.0457 40 20V20ZM17.8008 11.3379C17.8008 10.5199 18.4808 9.83789 19.3008 9.83789C20.1408 9.83789 20.8008 10.5199 20.8008 11.3379V20.5799L27.9208 24.8199C28.6408 25.2579 28.8808 26.1779 28.4408 26.8799C28.1608 27.3599 27.6608 27.6199 27.1608 27.6199C26.9008 27.6199 26.6208 27.5599 26.3808 27.3999L18.5408 22.7199C18.0808 22.4599 17.8008 21.9599 17.8008 21.4399V11.3379Z" fill="#F8B833"/>
</svg>
